<svg id="Layer_1" data-name="Layer 1" xmlns="http://www.w3.org/2000/svg" xmlns:xlink="http://www.w3.org/1999/xlink" viewBox="0 0 279.35 188.82"><defs><style>.cls-1{font-size:21.54px;font-family:LibreBaskerville-Bold, Libre Baskerville;font-weight:700;}.cls-1,.cls-3{fill:#f1f2f2;}.cls-2{fill:none;stroke:#7cbde6;stroke-linecap:round;stroke-linejoin:round;stroke-width:2.39px;}.cls-3{opacity:0.54;}.cls-4{fill:url(#New_Gradient_Swatch_2);}.cls-5{fill:url(#New_Gradient_Swatch_2-2);}.cls-6{fill:url(#New_Gradient_Swatch_2-3);}.cls-7{fill:url(#New_Gradient_Swatch_2-4);}.cls-8{fill:url(#New_Gradient_Swatch_2-5);}.cls-9{fill:url(#New_Gradient_Swatch_2-6);}.cls-10{fill:url(#New_Gradient_Swatch_2-7);}.cls-11{fill:url(#New_Gradient_Swatch_2-8);}.cls-12{fill:url(#New_Gradient_Swatch_2-9);}.cls-13{fill:url(#New_Gradient_Swatch_2-10);}.cls-14{fill:url(#New_Gradient_Swatch_2-11);}.cls-15{fill:url(#New_Gradient_Swatch_2-12);}.cls-16{fill:url(#New_Gradient_Swatch_2-13);}.cls-17{fill:url(#New_Gradient_Swatch_2-14);}.cls-18{fill:url(#New_Gradient_Swatch_2-15);}.cls-19{fill:url(#New_Gradient_Swatch_2-16);}.cls-20{fill:url(#New_Gradient_Swatch_2-17);}.cls-21{fill:url(#New_Gradient_Swatch_2-18);}.cls-22{fill:url(#New_Gradient_Swatch_2-19);}.cls-23{fill:url(#New_Gradient_Swatch_2-20);}</style><radialGradient id="New_Gradient_Swatch_2" cx="26.49" cy="50.06" r="9.17" gradientTransform="translate(5.59 -11.83) rotate(2.83)" gradientUnits="userSpaceOnUse"><stop offset="0.6" stop-color="#fdb93f"/><stop offset="0.98" stop-color="#e699c2"/></radialGradient><radialGradient id="New_Gradient_Swatch_2-2" cx="42.17" cy="47.14" r="12.35" xlink:href="#New_Gradient_Swatch_2"/><radialGradient id="New_Gradient_Swatch_2-3" cx="58.13" cy="47.43" r="14.61" xlink:href="#New_Gradient_Swatch_2"/><radialGradient id="New_Gradient_Swatch_2-4" cx="72.32" cy="47.26" r="14.61" xlink:href="#New_Gradient_Swatch_2"/><radialGradient id="New_Gradient_Swatch_2-5" cx="86.38" cy="46.05" r="14.19" xlink:href="#New_Gradient_Swatch_2"/><radialGradient id="New_Gradient_Swatch_2-6" cx="100.08" cy="43.15" r="9.68" xlink:href="#New_Gradient_Swatch_2"/><radialGradient id="New_Gradient_Swatch_2-7" cx="18.46" cy="83.17" r="11.73" xlink:href="#New_Gradient_Swatch_2"/><radialGradient id="New_Gradient_Swatch_2-8" cx="31.94" cy="84.18" r="13.5" xlink:href="#New_Gradient_Swatch_2"/><radialGradient id="New_Gradient_Swatch_2-9" cx="47.29" cy="86.15" r="11.48" xlink:href="#New_Gradient_Swatch_2"/><radialGradient id="New_Gradient_Swatch_2-10" cx="58.28" cy="86.74" r="10.43" xlink:href="#New_Gradient_Swatch_2"/><radialGradient id="New_Gradient_Swatch_2-11" cx="71.5" cy="85.74" r="10.78" xlink:href="#New_Gradient_Swatch_2"/><radialGradient id="New_Gradient_Swatch_2-12" cx="88.25" cy="81" r="12.76" xlink:href="#New_Gradient_Swatch_2"/><radialGradient id="New_Gradient_Swatch_2-13" cx="102.54" cy="72.74" r="11.25" xlink:href="#New_Gradient_Swatch_2"/><radialGradient id="New_Gradient_Swatch_2-14" cx="117.12" cy="67.46" r="12.1" xlink:href="#New_Gradient_Swatch_2"/><radialGradient id="New_Gradient_Swatch_2-15" cx="29.87" cy="121.48" r="13.42" xlink:href="#New_Gradient_Swatch_2"/><radialGradient id="New_Gradient_Swatch_2-16" cx="41.89" cy="124.55" r="13.22" xlink:href="#New_Gradient_Swatch_2"/><radialGradient id="New_Gradient_Swatch_2-17" cx="63.55" cy="125.77" r="13.6" xlink:href="#New_Gradient_Swatch_2"/><radialGradient id="New_Gradient_Swatch_2-18" cx="79.54" cy="123.62" r="14.53" xlink:href="#New_Gradient_Swatch_2"/><radialGradient id="New_Gradient_Swatch_2-19" cx="96.92" cy="117.71" r="17.71" xlink:href="#New_Gradient_Swatch_2"/><radialGradient id="New_Gradient_Swatch_2-20" cx="114.71" cy="111.04" r="16.14" xlink:href="#New_Gradient_Swatch_2"/></defs><title>groove-logo-heading</title><text class="cls-1" transform="translate(5.07 108.77) rotate(60.74) scale(0.99 1)"> </text><text class="cls-1" transform="matrix(0.54, 0.83, -0.84, 0.54, 8.16, 114.24)"> </text><text class="cls-1" transform="matrix(0.58, 0.8, -0.81, 0.59, 11.55, 119.45)"> </text><text class="cls-1" transform="translate(14.66 124.77) rotate(46.16) scale(0.99 1)">W</text><text class="cls-1" transform="matrix(0.77, 0.62, -0.62, 0.78, 32.85, 143.04)">e</text><text class="cls-1" transform="translate(43.14 151.07) rotate(34.98) scale(0.99 1)"> </text><text class="cls-1" transform="translate(48.25 154.84) rotate(30.91) scale(0.99 1)">E</text><text class="cls-1" transform="translate(63.05 163.63) rotate(25.22) scale(0.99 1)">n</text><text class="cls-1" transform="matrix(0.93, 0.34, -0.35, 0.94, 77.83, 170.47)">c</text><text class="cls-1" transform="matrix(0.95, 0.27, -0.27, 0.96, 89.82, 174.92)">o</text><text class="cls-1" transform="matrix(0.97, 0.18, -0.18, 0.98, 104.2, 178.93)">u</text><text class="cls-1" transform="translate(119.83 181.69) rotate(5.87) scale(0.99 1)">r</text><text class="cls-1" transform="translate(131.05 182.85) rotate(1.79) scale(0.99 1)">a</text><text class="cls-1" transform="translate(144.02 183.24) rotate(-2.74) scale(0.99 1)">g</text><text class="cls-1" transform="translate(157.63 182.56) rotate(-7.28) scale(0.99 1)">e</text><text class="cls-1" transform="translate(170.5 180.8) rotate(-10.54) scale(0.99 1)"> </text><text class="cls-1" transform="translate(176.15 179.96) rotate(-14.51) scale(0.99 1)">T</text><text class="cls-1" transform="matrix(0.93, -0.35, 0.35, 0.94, 194.14, 175.19)">h</text><text class="cls-1" transform="translate(209.18 169.51) rotate(-25.76) scale(0.99 1)">o</text><text class="cls-1" transform="matrix(0.85, -0.51, 0.52, 0.86, 222.65, 162.98)">u</text><text class="cls-1" transform="translate(236.28 154.66) rotate(-36.42) scale(0.99 1)">g</text><text class="cls-1" transform="translate(247.53 146.38) rotate(-42.18) scale(0.99 1)">h</text><text class="cls-1" transform="matrix(0.67, -0.73, 0.74, 0.68, 259.32, 135.43)">t</text><path class="cls-2" d="M175.63,114c-20.76,33.59-68.24,51.64-104.39,51.64-48.28,0-88.85-25.81-105.3-51.79" transform="translate(71.21 -16.08)"/><circle class="cls-3" cx="71.11" cy="77.44" r="61.36" transform="translate(61.46 128.56) rotate(-87.17)"/><path class="cls-4" d="M31.88,35.43l.91-1.18a6.41,6.41,0,0,0,.46-.66c.07-.13.06-.18,0-.14a3.36,3.36,0,0,0-.57.39c-.06,0-.07,0,0,0l.2-.19.28-.26.24-.21c.31-.27.65-.55,1-.84l1.12-.85.63-.48.6-.46.59-.45.63-.46c.06,0,.08,0,.05,0a1.65,1.65,0,0,1-.15.26c-.07.11-.15.22-.24.34a1,1,0,0,1-.22.23,11.24,11.24,0,0,0-1,.73,9.32,9.32,0,0,0-.81.79,12.66,12.66,0,0,0-.82,1c-.28.38-.61.85-1,1.42a69.4,69.4,0,0,0-5.09,9.35,13.61,13.61,0,0,0-.6,1.53,3.08,3.08,0,0,0-.17,1,1,1,0,0,0,.28.68,2.27,2.27,0,0,0,.7.47,4,4,0,0,0,.72.2q.41.08.87.13a10.14,10.14,0,0,0,1.11.06,2.77,2.77,0,0,0,.83-.1,5.22,5.22,0,0,0,1-.4,2.63,2.63,0,0,0,.76-.65,5.45,5.45,0,0,0,.67-1.09A16.91,16.91,0,0,0,35.53,44a.43.43,0,0,1,.23-.27.71.71,0,0,1,.31-.05.35.35,0,0,1,.26.12.28.28,0,0,1,0,.29q-.48,1.49-.86,2.79a25.3,25.3,0,0,0-.64,2.69.8.8,0,0,1-.16.29c-.09.12-.26.15-.5.1a70.36,70.36,0,0,0-9-1.13,16.64,16.64,0,0,0-1.94.07l-1.87.2c-.12,0-.19,0-.2-.11a.45.45,0,0,1,.06-.28,1.18,1.18,0,0,1,.25-.31.77.77,0,0,1,.35-.19c.55-.12,1-.22,1.36-.32a2.81,2.81,0,0,0,.91-.42,2.93,2.93,0,0,0,.7-.78c.22-.34.48-.81.78-1.4a71.73,71.73,0,0,1,6.27-9.83Z" transform="translate(71.21 -16.08)"/><path class="cls-5" d="M49.88,41.27a46.39,46.39,0,0,1-.77,5.5,13.86,13.86,0,0,1-1.36,3.93,4.42,4.42,0,0,1-2.14,2,4.58,4.58,0,0,1-3.06,0,8.74,8.74,0,0,1-2.88-1.44A5.9,5.9,0,0,1,37.88,49a7.84,7.84,0,0,1-.61-3.21,18.25,18.25,0,0,1,.61-4.32q1.22-4.91,2.84-9.7.35-1,.55-1.73A4.1,4.1,0,0,0,41.47,29c0-.25-.08-.39-.23-.44a1.14,1.14,0,0,0-.72.15c-.07,0-.09,0-.08-.08a1.31,1.31,0,0,1,.11-.31,2.63,2.63,0,0,1,.2-.35.79.79,0,0,1,.22-.24,9.75,9.75,0,0,1,1.17-.6c.43-.18.86-.38,1.27-.6l.69-.38.65-.4.65-.39c.22-.12.45-.25.69-.36q.11,0,.1.11a1.58,1.58,0,0,1-.07.39,3.24,3.24,0,0,1-.18.45c-.07.15-.14.24-.2.26a4.65,4.65,0,0,0-1,.68,4,4,0,0,0-.73.93,8,8,0,0,0-.61,1.34c-.19.53-.4,1.2-.63,2q-1.41,5-2.45,10.12A16.44,16.44,0,0,0,40,44.37a9.81,9.81,0,0,0,.33,2.76,6.07,6.07,0,0,0,1.07,2.16,3.36,3.36,0,0,0,1.82,1.2,3.1,3.1,0,0,0,3.71-1.57c1.34-2.22,1.53-5.16,1.86-7.7.31-3.13.48-4.68.87-7.71.06-.48.14-1.06.23-1.75s.18-1.41.27-2.1.16-1.34.23-2,.1-1.1.11-1.43a8,8,0,0,0,0-1,.81.81,0,0,0-.16-.46.34.34,0,0,0-.34-.07,4.19,4.19,0,0,1-.54.08c-.06,0-.09,0-.1-.18a2.24,2.24,0,0,1,0-.45,3.29,3.29,0,0,1,.13-.46q.08-.22.19-.26a3.08,3.08,0,0,1,.91-.2,4,4,0,0,0,1-.21,4.91,4.91,0,0,0,1-.47,4.78,4.78,0,0,1,1.11-.5q.11,0,.14.18a1.92,1.92,0,0,1,0,.49,2.85,2.85,0,0,1-.12.54q-.09.27-.2.3a6,6,0,0,1-.56.26.81.81,0,0,0-.36.29,2.78,2.78,0,0,0-.32.62c-.11.27-.24.67-.4,1.2a14.27,14.27,0,0,0-.35,1.51q-.18,1-.33,2t-.28,2.16l-.22,1.92C50.32,36.58,50.16,38.12,49.88,41.27Z" transform="translate(71.21 -16.08)"/><path class="cls-6" d="M62.12,19.29a2.25,2.25,0,0,1,1.63.34A6.82,6.82,0,0,1,65.23,21l.41.47c.13.15.24.22.34.22s.37-.36.44-1a.53.53,0,0,1,.14-.33.26.26,0,0,1,.23-.1.32.32,0,0,1,.19.12.44.44,0,0,1,.06.32q-.08.86-.12,1.78c0,.61,0,1.24,0,1.89q0,1.51.09,3t.19,3.17a.61.61,0,0,1-.1.36.39.39,0,0,1-.24.17.31.31,0,0,1-.27-.07.52.52,0,0,1-.15-.38,22,22,0,0,0-1.69-7.09C64,22.07,63,21.43,61.91,21.59a3.24,3.24,0,0,0-2.26,1.75A15.87,15.87,0,0,0,58,27.2a35.39,35.39,0,0,0-1,5c-.25,1.82-.41,3.61-.5,5.36a54.62,54.62,0,0,0,0,5.86,32,32,0,0,0,.78,5.5A15,15,0,0,0,59,53.24a3.67,3.67,0,0,0,2.6,2,3.88,3.88,0,0,0,2.1-.25,3.18,3.18,0,0,0,1.51-1.7,16.15,16.15,0,0,0,1.12-3.94,41.93,41.93,0,0,0,.52-5.21.75.75,0,0,1,.14-.51.21.21,0,0,1,.27,0,.79.79,0,0,1,.26.31.82.82,0,0,1,.1.45q0,1.14,0,2.25t0,2.26q.06,2,.19,4T68,57.2a1.08,1.08,0,0,1-.08.52.34.34,0,0,1-.23.2.28.28,0,0,1-.26-.12.83.83,0,0,1-.16-.44,7.05,7.05,0,0,0-.21-1,3.14,3.14,0,0,0-.34-.82.61.61,0,0,0-.47-.34c-.16,0-.34.12-.55.38a9.19,9.19,0,0,1-1,1.12,3.88,3.88,0,0,1-1,.69,3.12,3.12,0,0,1-1.07.28,5.45,5.45,0,0,1-1.25-.06c-3.16-.49-5.34-3.2-6.4-6-1.56-4.17-1.62-8.91-1.39-13.27a40.72,40.72,0,0,1,1.15-7.68,31.63,31.63,0,0,1,2-5.76A14.37,14.37,0,0,1,59.25,21,5.14,5.14,0,0,1,62.12,19.29Z" transform="translate(71.21 -16.08)"/><path class="cls-7" d="M78.63,20.2a.66.66,0,0,1,.32.14c.11.08.17.36.17.83s0,.79.06,1.27l.11,1.44q.18,2.31.4,4.35a.52.52,0,0,1-.07.33.31.31,0,0,1-.21.15.29.29,0,0,1-.25-.09A.69.69,0,0,1,79,28.2q-.3-2-.52-3.2A7.7,7.7,0,0,0,78,23.23a1.56,1.56,0,0,0-.75-.81,4.69,4.69,0,0,0-1.17-.3L74.8,22a5,5,0,0,0-.86,0,.64.64,0,0,0-.49.38,2.85,2.85,0,0,0-.21,1.09q0,.75,0,2.1.19,4.79.39,9.58a2.5,2.5,0,0,0,.16,1q.12.19.23.19a4.73,4.73,0,0,0,1.61-.27,1.55,1.55,0,0,0,.84-.82,4.12,4.12,0,0,0,.31-1.51q0-.92,0-2.38a1,1,0,0,1,.1-.48.27.27,0,0,1,.23-.16.33.33,0,0,1,.25.16.92.92,0,0,1,.14.48q.05.86.08,1.53l0,1.35q0,.68,0,1.41t.09,1.71q.11,1.63.27,3c.11.89.2,2,.29,3.26a.65.65,0,0,1-.09.42.26.26,0,0,1-.25.13.44.44,0,0,1-.26-.14.83.83,0,0,1-.17-.46Q77.41,42,77.24,41a3.92,3.92,0,0,0-.5-1.49,1.6,1.6,0,0,0-.94-.68,5.67,5.67,0,0,0-1.65-.13c-.08,0-.15.07-.22.2a1.86,1.86,0,0,0-.08.82c.14,2.93.21,4.41.37,7.39q.1,1.82.27,3.1a12.63,12.63,0,0,0,.44,2.09,4.39,4.39,0,0,0,.6,1.27,1.83,1.83,0,0,0,.79.63,2.65,2.65,0,0,0,.77.16,4.1,4.1,0,0,0,.88,0A4.77,4.77,0,0,0,79,54.06a2,2,0,0,0,.74-.46,5.88,5.88,0,0,0,.75-1A4.28,4.28,0,0,0,81,51.36a11.13,11.13,0,0,0,.24-1.85q.06-1.09,0-2.73a.62.62,0,0,1,.13-.46.51.51,0,0,1,.29-.15.34.34,0,0,1,.3.12.57.57,0,0,1,.14.42q.08,2.28.16,4.28t.29,4.09a1.81,1.81,0,0,1-.05.49.51.51,0,0,1-.43.4,56.63,56.63,0,0,1-8.75,1.31q-.92.07-1.81.23c-.59.1-1.15.24-1.59.28-.12,0-.23-.09-.31-.26a2.31,2.31,0,0,1-.15-.64,2,2,0,0,1,0-.7.48.48,0,0,1,.3-.38,2.76,2.76,0,0,0,1-.52,2.27,2.27,0,0,0,.63-1,6,6,0,0,0,.32-1.55,17.57,17.57,0,0,0,0-2.37Q71.32,39.58,71,28.75q0-1.21-.1-2.35t-.19-2.12a9,9,0,0,0-.36-1.68,1.84,1.84,0,0,0-.62-1,2.57,2.57,0,0,0-.48-.26,1.88,1.88,0,0,0-.48-.15c-.07,0-.15-.08-.19-.26a2.59,2.59,0,0,1-.07-.59,2.66,2.66,0,0,1,.06-.59c0-.18.1-.27.18-.27a6,6,0,0,1,1.26.08,7.94,7.94,0,0,0,1.31.1A50,50,0,0,1,78.63,20.2Z" transform="translate(71.21 -16.08)"/><path class="cls-8" d="M83.29,26.2a8.2,8.2,0,0,0-.69-2.68A2.82,2.82,0,0,0,81.05,22q-.1,0-.17-.3a3.53,3.53,0,0,1-.1-.58,2.72,2.72,0,0,1,0-.54q0-.24.15-.22l.75.13a7.68,7.68,0,0,1,1,.28,6.53,6.53,0,0,1,1,.42,1.15,1.15,0,0,1,.55.49A123.45,123.45,0,0,0,95.91,43.11c.24.31.32.22.22-.27q-1-5-2.06-9.91l-.34-1.54q-.21-.95-.43-1.87t-.44-1.75q-.21-.83-.39-1.31c-.15-.41-.28-.73-.39-1a2.5,2.5,0,0,0-.36-.59,1.59,1.59,0,0,0-.44-.36l-.6-.32c-.06,0-.12-.11-.19-.27a3,3,0,0,1-.14-.48A2.5,2.5,0,0,1,90.3,23c0-.13,0-.18.11-.15a6.06,6.06,0,0,1,1,.46,7.57,7.57,0,0,0,1,.5,5,5,0,0,0,.9.26,4.65,4.65,0,0,1,1,.33.52.52,0,0,1,.21.24,2.13,2.13,0,0,1,.16.4,1.38,1.38,0,0,1,.06.38q0,.17-.11.13l-.48-.09a.3.3,0,0,0-.28.06.62.62,0,0,0-.13.37,6.36,6.36,0,0,0,0,.87A10.1,10.1,0,0,0,93.9,28q.14.78.32,1.68t.4,1.83L95,33.12q2,8.59,3.69,17.23a.33.33,0,0,1-.08.26,1,1,0,0,1-.27.25A1,1,0,0,1,98,51a.21.21,0,0,1-.23-.07A118.33,118.33,0,0,1,84.92,29.29c-.14-.3-.24-.44-.29-.43s-.05.23,0,.65q1,9.1,2.07,18.19a24.19,24.19,0,0,0,.45,2.84A3.87,3.87,0,0,0,87.7,52a1.14,1.14,0,0,0,.74.47,5.56,5.56,0,0,0,1,0c.1,0,.18.08.25.23a1.64,1.64,0,0,1,.13.53,2.57,2.57,0,0,1,0,.58c0,.18-.08.29-.18.32a4,4,0,0,1-1.15.2,6,6,0,0,0-1.49.27,7.79,7.79,0,0,0-1.57.64,5.11,5.11,0,0,1-1.15.5c-.08,0-.15-.05-.22-.22a2.52,2.52,0,0,1-.14-.58,2.12,2.12,0,0,1,0-.61A.52.52,0,0,1,84,54a7.43,7.43,0,0,0,1-.6,1.72,1.72,0,0,0,.59-.85,5.21,5.21,0,0,0,.19-1.64q0-1.07-.2-2.94Q84.46,37.07,83.29,26.2Z" transform="translate(71.21 -16.08)"/><path class="cls-9" d="M108.06,40.82a11.69,11.69,0,0,0,.64,1.25,1.26,1.26,0,0,0,.59.55,1.21,1.21,0,0,0,.77,0,7.11,7.11,0,0,0,1.13-.47.3.3,0,0,1,.27,0,.47.47,0,0,1,.26.48.34.34,0,0,1-.16.26,13.67,13.67,0,0,1-1.63,1c-.54.27-1.06.55-1.56.86a19.13,19.13,0,0,0-1.62,1.13,14.47,14.47,0,0,1-1.54,1.06.18.18,0,0,1-.24,0,.82.82,0,0,1-.17-.32,1.21,1.21,0,0,1,0-.41.42.42,0,0,1,.13-.31,7.85,7.85,0,0,0,1-.8,1.78,1.78,0,0,0,.47-.76,2,2,0,0,0,0-1,11.1,11.1,0,0,0-.47-1.51c-1.54-4.09-3.21-8.14-5.06-12.1a4.24,4.24,0,0,0-.88-1.35,4.44,4.44,0,0,0-1.19-.74,2.85,2.85,0,0,0-1-.29.46.46,0,0,0-.48.35,2.79,2.79,0,0,0,0,1.12c.06.51.18,1.2.35,2.07,0,.13,0,.21,0,.25a.23.23,0,0,1-.19,0,.55.55,0,0,1-.22-.15.59.59,0,0,1-.15-.25c-.2-.84-.42-1.69-.68-2.55s-.54-1.73-.87-2.6c-.08-.25,0-.38.09-.39a1,1,0,0,1,.5.12,57.39,57.39,0,0,1,8.83,5.18l.54.4.41.32.4.34.56.48.66.58.68.58s0,.06,0,.08a.17.17,0,0,1-.13,0l-.22-.07a.83.83,0,0,1-.22-.15c-.45-.41-.86-.76-1.21-1.06s-.69-.57-1-.81-.63-.47-.94-.68-.64-.41-1-.61a2.15,2.15,0,0,0-.94-.37c-.14,0,0,.32.27.87C104.64,33.77,106.38,37.27,108.06,40.82Z" transform="translate(71.21 -16.08)"/><path class="cls-10" d="M18.36,63c.2-.91.36-1.68.46-2.32a5.91,5.91,0,0,0,.1-1.54,1.26,1.26,0,0,0-.39-.87,1.54,1.54,0,0,0-1-.28c-.09,0-.14-.06-.13-.2a1.6,1.6,0,0,1,.09-.46,2,2,0,0,1,.22-.46q.14-.21.28-.23a9,9,0,0,1,1.62-.06c.6,0,1.18,0,1.73,0q.48,0,.93-.07l.86-.1.85-.08a7.48,7.48,0,0,1,.91,0c.09,0,.14.08.13.23a1.71,1.71,0,0,1-.09.48,2.72,2.72,0,0,1-.22.5q-.14.24-.25.23a3.2,3.2,0,0,0-1.26.34,2.53,2.53,0,0,0-.91.87,6.25,6.25,0,0,0-.7,1.56,25.34,25.34,0,0,0-.62,2.5,88.1,88.1,0,0,0-1.31,18.41,18.38,18.38,0,0,0,.27,2.44,4.49,4.49,0,0,0,.48,1.4,2.33,2.33,0,0,0,.78.82,7.11,7.11,0,0,0,1.22.58.65.65,0,0,1,.26.35,2.12,2.12,0,0,1,.15.56,1.38,1.38,0,0,1,0,.5c0,.14-.11.21-.22.18a10.29,10.29,0,0,1-1.86-.57,10.72,10.72,0,0,0-1.76-.56,11.19,11.19,0,0,0-1.85-.25,9.19,9.19,0,0,1-1.72-.24q-.14,0-.25-.27a1.89,1.89,0,0,1-.15-.49,1.55,1.55,0,0,1,0-.48c0-.15.08-.23.17-.24a4.07,4.07,0,0,0,1.14-.07.91.91,0,0,0,.62-.5,2.91,2.91,0,0,0,.2-1.23c0-.55,0-1.33-.1-2.35A80.13,80.13,0,0,1,18.36,63Z" transform="translate(71.21 -16.08)"/><path class="cls-11" d="M27.53,61.7a5.68,5.68,0,0,0,0-2.49,1.8,1.8,0,0,0-1.37-1.3q-.12,0-.11-.26a2.3,2.3,0,0,1,.27-1c.08-.14.16-.21.26-.21l.87.07a8.59,8.59,0,0,1,1.18.2,5.91,5.91,0,0,1,1.05.35c.31.14.47.29.49.45a131.21,131.21,0,0,0,7.34,24.24q.31.67.29-.2c0-3.9,0-7.79.32-11.68,0-.49.09-1.1.16-1.8l.21-2.17q.1-1.07.2-2a13.69,13.69,0,0,0,.09-1.5,10.72,10.72,0,0,0-.06-1.09,1.58,1.58,0,0,0-.21-.65,1.07,1.07,0,0,0-.42-.38l-.65-.33q-.11,0-.12-.28a2.25,2.25,0,0,1,0-.52,2.34,2.34,0,0,1,.14-.47c.06-.14.13-.19.22-.17a5.65,5.65,0,0,1,1.11.43,6.54,6.54,0,0,0,1.2.47,5.42,5.42,0,0,0,1.16.19,5.74,5.74,0,0,1,1.28.24c.09,0,.14.12.16.27a1.65,1.65,0,0,1,0,.48,1.7,1.7,0,0,1-.14.47c-.07.14-.15.2-.24.18l-.65,0a.66.66,0,0,0-.43.1,1.33,1.33,0,0,0-.38.46,7.68,7.68,0,0,0-.46,1A9.8,9.8,0,0,0,40,64.2q-.19.91-.34,2t-.25,2.17c-.07.73-.12,1.37-.16,1.93a143.73,143.73,0,0,0,.27,20.55.22.22,0,0,1-.11.22.58.58,0,0,1-.3.09.94.94,0,0,1-.35-.06.39.39,0,0,1-.24-.21,144,144,0,0,1-10-26.14c-.08-.3-.15-.44-.22-.44s-.13.21-.19.62a110.06,110.06,0,0,0-.93,17.66,18.06,18.06,0,0,0,.29,2.74A4.6,4.6,0,0,0,28,86.81a2.1,2.1,0,0,0,.75.74,9.6,9.6,0,0,0,1,.47.55.55,0,0,1,.25.32,1.81,1.81,0,0,1,.11.54,2,2,0,0,1,0,.51c0,.15-.09.22-.19.2a5.36,5.36,0,0,1-1.19-.36,7.25,7.25,0,0,0-1.53-.43,7.35,7.35,0,0,0-1.61-.13,5,5,0,0,1-1.17-.06c-.08,0-.15-.11-.22-.27a2.41,2.41,0,0,1-.15-.54,1.42,1.42,0,0,1,0-.51c0-.15.09-.23.19-.24a5.93,5.93,0,0,0,1-.12.9.9,0,0,0,.62-.5,3.46,3.46,0,0,0,.25-1.36c0-.63,0-1.53-.05-2.7A102.58,102.58,0,0,1,27.53,61.7Z" transform="translate(71.21 -16.08)"/><path class="cls-12" d="M45.75,66.63a7,7,0,0,0,.12,2.24,5.83,5.83,0,0,0,.66,1.65,7.2,7.2,0,0,0,1,1.26l1,1.08q.88.93,1.76,1.93A14.33,14.33,0,0,1,51.9,77a12.75,12.75,0,0,1,1.22,2.84,16.3,16.3,0,0,1,.6,3.88,12.21,12.21,0,0,1-.3,3.78A7,7,0,0,1,52.22,90a4.43,4.43,0,0,1-1.77,1.4,4.88,4.88,0,0,1-2.05.4,4,4,0,0,1-1.57-.44,5.54,5.54,0,0,1-1.66-1.24l-.25-.2a.49.49,0,0,0-.29-.11q-.17,0-.34.25a2.39,2.39,0,0,0-.26.94.56.56,0,0,1-.16.36.29.29,0,0,1-.25.05.39.39,0,0,1-.23-.18.69.69,0,0,1-.11-.33q0-1,0-2.19t-.1-2.39q-.07-1.21-.16-2.43t-.22-2.55a.67.67,0,0,1,.09-.46.34.34,0,0,1,.26-.18.38.38,0,0,1,.28.13.68.68,0,0,1,.17.42,19.34,19.34,0,0,0,.66,3.53,12.08,12.08,0,0,0,1.13,2.71,6.25,6.25,0,0,0,1.45,1.75,2.81,2.81,0,0,0,1.67.66,2.31,2.31,0,0,0,1.23-.29,2.83,2.83,0,0,0,1-.94,4.61,4.61,0,0,0,.62-1.54A7.87,7.87,0,0,0,51.44,85a10.36,10.36,0,0,0-.5-2.81,10.3,10.3,0,0,0-2.25-3.82c-.45-.49-.88-.95-1.28-1.35s-1-1.07-1.57-1.63a9,9,0,0,1-1.36-2,9.83,9.83,0,0,1-.88-2.61,12.78,12.78,0,0,1-.12-3.56,10,10,0,0,1,.8-3.37A5.05,5.05,0,0,1,45.71,62a3.42,3.42,0,0,1,1.76-.72,4.92,4.92,0,0,1,1.9.19,4.11,4.11,0,0,1,1,.44,6.63,6.63,0,0,1,.91.72l.45.38a.94.94,0,0,0,.36.19c.18,0,.31,0,.41-.29a.25.25,0,0,1,.18-.17.38.38,0,0,1,.23,0,.52.52,0,0,1,.19.15.27.27,0,0,1,0,.25,10.78,10.78,0,0,0-.25,1.35q-.08.69-.13,1.48c0,.68-.05,1.31,0,1.88s0,1.25,0,2a.28.28,0,0,1-.1.21.32.32,0,0,1-.23.08.36.36,0,0,1-.24-.1.45.45,0,0,1-.13-.31c-.11-1.23-.23-2.24-.36-3a7.34,7.34,0,0,0-.56-1.93,2.86,2.86,0,0,0-.9-1.12A4.23,4.23,0,0,0,49,63.07a2.15,2.15,0,0,0-1.08,0,2,2,0,0,0-1,.56,3.53,3.53,0,0,0-.75,1.2A6.36,6.36,0,0,0,45.75,66.63Z" transform="translate(71.21 -16.08)"/><path class="cls-13" d="M57.63,69.7c0-.79,0-1.47,0-2a5.13,5.13,0,0,0-.27-1.4,2.28,2.28,0,0,0-.62-.92,3.05,3.05,0,0,0-1.1-.59q-.13,0-.19-.25a1.47,1.47,0,0,1,0-.45,1.09,1.09,0,0,1,.09-.39c.05-.11.12-.16.21-.14.47.11,1,.27,1.62.47a12.75,12.75,0,0,0,1.72.45q.47.09.89.12l.81.06.8,0c.27,0,.56,0,.88.08q.14,0,.19.2a1.08,1.08,0,0,1,0,.38,1.32,1.32,0,0,1-.08.39q-.07.18-.18.17a3,3,0,0,0-1.14.16,1.26,1.26,0,0,0-.67.63,3.49,3.49,0,0,0-.31,1.25c0,.53-.07,1.22-.07,2.07q.09,7.83.54,15.65a16.93,16.93,0,0,0,.23,2.11,3,3,0,0,0,.43,1.15,1.46,1.46,0,0,0,.76.55,5.63,5.63,0,0,0,1.21.22.38.38,0,0,1,.25.24,1.28,1.28,0,0,1,.12.46,1.14,1.14,0,0,1-.05.45.28.28,0,0,1-.24.22,9.4,9.4,0,0,1-1.86,0A10.69,10.69,0,0,0,59.79,91a12.36,12.36,0,0,0-1.89.26,9.88,9.88,0,0,1-1.77.23q-.15,0-.24-.21a1.47,1.47,0,0,1-.11-.46,1.59,1.59,0,0,1,0-.49q.05-.23.2-.28a5.23,5.23,0,0,0,1.18-.34,1.38,1.38,0,0,0,.66-.63,2.87,2.87,0,0,0,.26-1.2c0-.52,0-1.24-.05-2.16C57.77,80.36,57.62,75,57.63,69.7Z" transform="translate(71.21 -16.08)"/><path class="cls-14" d="M79.92,85.1a.5.5,0,0,1-.1.4q-.58.85-1.12,1.56a7,7,0,0,1-1.25,1.26,7.28,7.28,0,0,1-1.66,1,11,11,0,0,1-2.31.65A6,6,0,0,1,70,89.6a6.57,6.57,0,0,1-2.73-2.34,13.53,13.53,0,0,1-1.85-4.2,27,27,0,0,1-.85-5.82,22.11,22.11,0,0,1,.39-5.7,11.54,11.54,0,0,1,1.54-3.91,6.73,6.73,0,0,1,2.38-2.26,6.85,6.85,0,0,1,3-.82,5.74,5.74,0,0,1,2.05.27,12.21,12.21,0,0,1,1.9.78,2.28,2.28,0,0,0,.83.27c.21,0,.34-.2.38-.62a.27.27,0,0,1,.11-.24.42.42,0,0,1,.23-.08.39.39,0,0,1,.22.06.21.21,0,0,1,.1.19,14.72,14.72,0,0,0,.25,2.7q.27,1.51.58,3.14a.48.48,0,0,1-.08.32.54.54,0,0,1-.23.21.35.35,0,0,1-.28,0,.34.34,0,0,1-.19-.26,7.49,7.49,0,0,0-2.23-4.16A4.87,4.87,0,0,0,71.9,66a3.11,3.11,0,0,0-2.15,1,6.43,6.43,0,0,0-1.39,2.35,14.15,14.15,0,0,0-.71,3.38,25.36,25.36,0,0,0-.08,3.89,33.37,33.37,0,0,0,.65,5.07,16.07,16.07,0,0,0,1.29,3.86,6.18,6.18,0,0,0,1.83,2.31,3,3,0,0,0,2.33.51,6.62,6.62,0,0,0,1.68-.52,3.5,3.5,0,0,0,1.26-1,4.19,4.19,0,0,0,.75-1.62,7.89,7.89,0,0,0,.15-2.4A11.61,11.61,0,0,0,77.27,81a1.85,1.85,0,0,0-.43-.9,1.21,1.21,0,0,0-.75-.34,10.77,10.77,0,0,0-1.19,0,.23.23,0,0,1-.25-.15,1,1,0,0,1-.1-.36,1.21,1.21,0,0,1,0-.4.23.23,0,0,1,.19-.2q.83-.13,1.73-.19a13.35,13.35,0,0,0,1.58-.2,5.14,5.14,0,0,0,.62-.16l.61-.18.68-.2q.36-.11.83-.22c.08,0,.14,0,.19.12a1,1,0,0,1,.09.37.92.92,0,0,1,0,.36.38.38,0,0,1-.19.25,2.93,2.93,0,0,0-.78.44,1.29,1.29,0,0,0-.37.6,2.87,2.87,0,0,0-.09.86c0,.33,0,.74.06,1.2C79.8,83,79.85,83.73,79.92,85.1Z" transform="translate(71.21 -16.08)"/><path class="cls-15" d="M93.35,70.55a.68.68,0,0,0,.37-.28.91.91,0,0,0,0-.58c-.32-1.8-.5-2.67-.92-4.35a11.65,11.65,0,0,0-.5-1.59,2.89,2.89,0,0,0-.6-1,1.43,1.43,0,0,0-.8-.41,2.86,2.86,0,0,0-1.14.1.21.21,0,0,1-.24-.09.91.91,0,0,1-.16-.31.83.83,0,0,1,0-.34.23.23,0,0,1,.15-.21c.45-.16,1-.31,1.56-.46a14.52,14.52,0,0,0,1.64-.53q.44-.17.81-.36l.73-.36.71-.37q.36-.19.79-.38a.19.19,0,0,1,.23.06.78.78,0,0,1,.16.29,1.12,1.12,0,0,1,.05.36c0,.12,0,.2-.11.23a3.79,3.79,0,0,0-1,.69,1.58,1.58,0,0,0-.41.83,3.27,3.27,0,0,0,.05,1.16c.09.45.23,1,.42,1.72a65.51,65.51,0,0,1,2.06,13.16,16.79,16.79,0,0,0,.17,1.81,1.92,1.92,0,0,0,.35.91.82.82,0,0,0,.68.27,5.56,5.56,0,0,0,1.12-.17.21.21,0,0,1,.22.13.76.76,0,0,1,.08.37,1.22,1.22,0,0,1-.09.43.45.45,0,0,1-.24.28,11.7,11.7,0,0,1-1.74.54,11,11,0,0,0-1.65.51,16.08,16.08,0,0,0-1.79.85,13.83,13.83,0,0,1-1.68.79q-.14.05-.21-.1a.93.93,0,0,1-.07-.37,1.35,1.35,0,0,1,.07-.43.53.53,0,0,1,.2-.3,8.09,8.09,0,0,0,1.13-.7,2.27,2.27,0,0,0,.65-.8,3.26,3.26,0,0,0,.29-1.17,13.83,13.83,0,0,0,0-1.88c-.14-2.37-.25-3.55-.56-5.83-.08-.59-.29-.82-.62-.7-2.72,1-4.09,1.49-6.85,2.31-.34.1-.48.38-.43.85.27,2.41.38,3.67.53,6.16a15.87,15.87,0,0,0,.19,1.85,2.09,2.09,0,0,0,.38,1,.92.92,0,0,0,.7.32,5.2,5.2,0,0,0,1.14-.11.23.23,0,0,1,.22.14.79.79,0,0,1,.09.37,1.18,1.18,0,0,1-.08.43.41.41,0,0,1-.24.27A10,10,0,0,1,87.5,86a11.82,11.82,0,0,0-1.68.39A16.25,16.25,0,0,0,84,87.1a11.8,11.8,0,0,1-1.71.63c-.09,0-.17,0-.22-.13a1,1,0,0,1-.08-.39,1.28,1.28,0,0,1,.06-.43.45.45,0,0,1,.2-.28,6.89,6.89,0,0,0,1.15-.59,1.94,1.94,0,0,0,.66-.74A3.06,3.06,0,0,0,84.33,84a15.17,15.17,0,0,0,0-1.91C84,77.52,83.56,73,82.79,68.43a13.51,13.51,0,0,0-.37-1.67,3.17,3.17,0,0,0-.51-1.05,1.53,1.53,0,0,0-.75-.52A2.86,2.86,0,0,0,80,65.12c-.09,0-.16,0-.23-.13a1,1,0,0,1-.13-.34.85.85,0,0,1,0-.34.21.21,0,0,1,.17-.19c.46-.09,1-.16,1.6-.23a13.52,13.52,0,0,0,1.68-.29q.45-.11.84-.24l.76-.26.75-.27.83-.27a.19.19,0,0,1,.22.09.79.79,0,0,1,.13.31,1.13,1.13,0,0,1,0,.36q0,.18-.13.21a3.66,3.66,0,0,0-1,.56,1.51,1.51,0,0,0-.49.78A3.21,3.21,0,0,0,85,66c0,.47.14,1.06.28,1.78.32,1.73.47,2.63.72,4.48.06.45.26.63.6.53C89.3,72,90.66,71.55,93.35,70.55Z" transform="translate(71.21 -16.08)"/><path class="cls-16" d="M109,73.07c.06.81.1,1.45.17,1.89a1.93,1.93,0,0,0,.34,1,1,1,0,0,0,.69.33,6,6,0,0,0,1.19-.07c.09,0,.17.06.22.19a1,1,0,0,1,.08.42,1.24,1.24,0,0,1-.09.45.4.4,0,0,1-.25.26,12.83,12.83,0,0,1-1.78.37,9,9,0,0,0-1.68.38A13.1,13.1,0,0,0,106,79a15.9,15.9,0,0,1-1.69.75c-.09,0-.16,0-.2-.11a1,1,0,0,1-.06-.38,1.6,1.6,0,0,1,.07-.45.55.55,0,0,1,.21-.32,8.6,8.6,0,0,0,1.14-.69,2.29,2.29,0,0,0,.66-.78,3.09,3.09,0,0,0,.3-1.17,13.29,13.29,0,0,0,0-1.91,63,63,0,0,0-3.2-15c-.29-.75-.61-1.14-.94-1.2a2.49,2.49,0,0,0-1.4.36,5.14,5.14,0,0,0-1.19.77,2.06,2.06,0,0,0-.6,1A4.24,4.24,0,0,0,99,61.33c0,.56.12,1.27.24,2.15a.36.36,0,0,1-.07.31.49.49,0,0,1-.23.15.36.36,0,0,1-.25,0,.26.26,0,0,1-.16-.18,20.82,20.82,0,0,0-.61-2.34,15.08,15.08,0,0,0-.9-2.19.48.48,0,0,1,.12-.56,2,2,0,0,1,.59-.41c3.64-1.79,7.16-3.71,10.64-5.8a1.77,1.77,0,0,1,.67-.27.46.46,0,0,1,.49.3c.12.25.25.59.42,1s.36.8.58,1.25l.67,1.4.65,1.38a.43.43,0,0,1,0,.31.47.47,0,0,1-.18.25.41.41,0,0,1-.26.07c-.09,0-.17-.08-.24-.2a11.57,11.57,0,0,0-1.22-2,3.46,3.46,0,0,0-1.12-1,1.75,1.75,0,0,0-1.11-.17,4,4,0,0,0-1.22.47,2.91,2.91,0,0,0-1.17,1c-.18.34-.11.87.2,1.63A61,61,0,0,1,109,73.07Z" transform="translate(71.21 -16.08)"/><path class="cls-17" d="M114.4,54.55a6.33,6.33,0,0,0,1,1.67,4.57,4.57,0,0,0,1.16.95,6.09,6.09,0,0,0,1.25.52l1.25.39a20.06,20.06,0,0,1,2.14.9,8.33,8.33,0,0,1,2.07,1.46,9.4,9.4,0,0,1,1.81,2.48,13.33,13.33,0,0,1,1.24,4,11.45,11.45,0,0,1,0,4.16,7.22,7.22,0,0,1-1.17,2.8,5,5,0,0,1-1.85,1.59,5.87,5.87,0,0,1-2.09.59,4.06,4.06,0,0,1-1.53-.22,4.42,4.42,0,0,1-1.55-.86l-.23-.13a.4.4,0,0,0-.28,0c-.11,0-.23.12-.36.31A2.94,2.94,0,0,0,117,76a.74.74,0,0,1-.2.36.4.4,0,0,1-.25.11.25.25,0,0,1-.21-.1.42.42,0,0,1-.08-.27c.06-.61.1-1.26.12-2s0-1.39,0-2.09-.12-1.38-.21-2.06-.23-1.37-.4-2.08a.59.59,0,0,1,0-.42.5.5,0,0,1,.23-.25.34.34,0,0,1,.28,0,.39.39,0,0,1,.2.29,21,21,0,0,0,.89,2.83,10,10,0,0,0,1.13,2.12,4.69,4.69,0,0,0,1.37,1.31,2.56,2.56,0,0,0,1.62.36,2.72,2.72,0,0,0,1.24-.46,3.38,3.38,0,0,0,1-1.09,4.94,4.94,0,0,0,.6-1.68,7.37,7.37,0,0,0,0-2.25,8.36,8.36,0,0,0-.8-2.74,7.13,7.13,0,0,0-1.28-1.81A6.33,6.33,0,0,0,120.75,63c-.52-.27-1-.52-1.46-.71s-1.19-.48-1.8-.71a7.37,7.37,0,0,1-1.72-1,7.65,7.65,0,0,1-1.55-1.59,12.07,12.07,0,0,1-1.38-2.6,11.07,11.07,0,0,1-.83-2.94,6.86,6.86,0,0,1,.1-2.34,5.31,5.31,0,0,1,.83-1.87,6,6,0,0,1,1.38-1.41,3.4,3.4,0,0,1,.94-.51,4.1,4.1,0,0,1,1-.17l.53,0a.71.71,0,0,0,.36-.12c.15-.11.17-.3.08-.6a.4.4,0,0,1,0-.3.37.37,0,0,1,.16-.18.35.35,0,0,1,.22,0,.28.28,0,0,1,.19.19q.33.75.7,1.46l.79,1.49c.36.68.7,1.29,1,1.82s.67,1.19,1,2a.4.4,0,0,1,0,.27.37.37,0,0,1-.14.22.28.28,0,0,1-.24,0,.41.41,0,0,1-.25-.22,20.76,20.76,0,0,0-1.8-2.63,5.57,5.57,0,0,0-1.47-1.34,1.91,1.91,0,0,0-1.27-.27,3.39,3.39,0,0,0-1.28.56,2.55,2.55,0,0,0-.77.81,3,3,0,0,0-.39,1.15,4.62,4.62,0,0,0,0,1.43A6.91,6.91,0,0,0,114.4,54.55Z" transform="translate(71.21 -16.08)"/><path class="cls-18" d="M22.61,102.76c-.33-.79-.62-1.49-.9-2.08a8.87,8.87,0,0,0-.87-1.52,4.75,4.75,0,0,0-1.06-1.06,5.92,5.92,0,0,0-1.47-.74.62.62,0,0,1-.32-.28,2.1,2.1,0,0,1-.24-.47,1,1,0,0,1-.07-.41c0-.12.07-.16.18-.13q.88.22,2,.62t2.16.63q.58.13,1.08.21l1,.14,1,.12q.49.06,1.07.18a.45.45,0,0,1,.29.26,1.74,1.74,0,0,1,.17.48,1.59,1.59,0,0,1,0,.47c0,.14-.07.21-.16.19a3,3,0,0,0-1.27,0,.81.81,0,0,0-.55.64,3.23,3.23,0,0,0,.1,1.36,21.57,21.57,0,0,0,.69,2.22,77.87,77.87,0,0,0,6.19,12.81c.45.72.86,1.32,1.21,1.81s.69.93,1,1.3.62.71.91,1,.61.59,1,.88.44.36.67.53.47.34.7.49a8.89,8.89,0,0,0,.8.47,1.23,1.23,0,0,0,.49.17.61.61,0,0,0,.39-.11c.09-.07.13-.22.11-.45a4.89,4.89,0,0,0-.22-1c-.13-.42-.32-1-.58-1.68q-.07-.21,0-.23a.47.47,0,0,1,.25.05,1.09,1.09,0,0,1,.32.23.83.83,0,0,1,.22.34c.35,1,.7,1.92,1,2.75s.74,1.67,1.19,2.53a.79.79,0,0,1,.07.24q0,.14-.26,0a53,53,0,0,1-6.38-4.58l-1.17-1q-.52-.44-1-.9L32,119l-.37-.36-.27-.27c-.06-.07-.07-.08,0,0,.27.22.47.37.61.46s.18.08.13,0a5.77,5.77,0,0,0-.47-.67l-1.19-1.56a78,78,0,0,1-7.84-13.79Z" transform="translate(71.21 -16.08)"/><path class="cls-19" d="M51.26,120.52a38.33,38.33,0,0,1,.39,4.92,10,10,0,0,1-.4,3.22A2.16,2.16,0,0,1,50,130.14a3.15,3.15,0,0,1-2.29-.36,11.37,11.37,0,0,1-2.55-1.64,16.2,16.2,0,0,1-2.3-2.41,23.56,23.56,0,0,1-2.17-3.33,30.84,30.84,0,0,1-2-4.58c-1.27-3.83-2.35-7.67-3.3-11.59-.21-.9-.4-1.69-.6-2.36a7.74,7.74,0,0,0-.69-1.68,3.63,3.63,0,0,0-1-1.1,4.44,4.44,0,0,0-1.45-.67q-.17,0-.3-.29a2,2,0,0,1-.19-.53,1.24,1.24,0,0,1,0-.48c0-.14.1-.2.21-.18a18.8,18.8,0,0,1,2.07.49,15.87,15.87,0,0,0,2.17.48q.58.08,1.09.1t1,0h1q.5,0,1.08.08.17,0,.27.27a1.82,1.82,0,0,1,.13.53,2,2,0,0,1,0,.54c0,.17-.09.25-.19.24a3,3,0,0,0-1.33.22,1.25,1.25,0,0,0-.65.82,4.3,4.3,0,0,0-.08,1.58c.07.66.19,1.51.4,2.52.82,3.91,1.7,7.78,2.84,11.61a23.91,23.91,0,0,0,1.23,3.23,21.34,21.34,0,0,0,1.56,2.82,14.9,14.9,0,0,0,1.74,2.19A5.59,5.59,0,0,0,47.46,128c1.33.55,2.19.26,2.64-.92s.45-3.38-.07-6.77c-.45-3-.66-4.5-1.06-7.68q-.09-.75-.23-1.85t-.29-2.29q-.16-1.14-.32-2.2a16.07,16.07,0,0,0-.34-1.67,9.71,9.71,0,0,0-.42-1.29,1.91,1.91,0,0,0-.44-.65,1.1,1.1,0,0,0-.58-.27,7.67,7.67,0,0,1-.85-.19q-.14,0-.24-.29a2.51,2.51,0,0,1-.13-.58,2.39,2.39,0,0,1,0-.54c0-.16.09-.24.2-.23a7.07,7.07,0,0,1,1.45.27,6.89,6.89,0,0,0,1.56.26,5.58,5.58,0,0,0,1.45-.12,7,7,0,0,1,1.62-.13q.17,0,.27.27a1.94,1.94,0,0,1,.13.57,2,2,0,0,1,0,.59q-.06.28-.23.28a6.71,6.71,0,0,1-.79.1.65.65,0,0,0-.47.21,1.51,1.51,0,0,0-.29.62,11,11,0,0,0-.23,1.27,10.25,10.25,0,0,0,0,1.64c0,.69.06,1.42.13,2.19s.14,1.53.23,2.3.17,1.44.24,2C50.67,116.06,50.86,117.58,51.26,120.52Z" transform="translate(71.21 -16.08)"/><path class="cls-20" d="M63.57,99.6a4.55,4.55,0,0,1,2.36.41,10,10,0,0,1,2.16,1.42l.59.47a.67.67,0,0,0,.47.2c.3,0,.48-.42.55-1.15a.53.53,0,0,1,.17-.37.42.42,0,0,1,.3-.13.44.44,0,0,1,.27.11.38.38,0,0,1,.1.33q-.08.93-.1,1.9t0,2q0,1.57.16,3.1t.24,3.15a.55.55,0,0,1-.12.36.55.55,0,0,1-.3.19.45.45,0,0,1-.34-.05.44.44,0,0,1-.19-.36,16.22,16.22,0,0,0-2.35-7.07,4.43,4.43,0,0,0-4-2,3.86,3.86,0,0,0-3,1.68,11.14,11.14,0,0,0-1.7,3.88,25.24,25.24,0,0,0-.69,5,50.45,50.45,0,0,0,0,5.13,48.55,48.55,0,0,0,.61,5.3A28,28,0,0,0,60,127.71a12.49,12.49,0,0,0,1.75,3.4,3.45,3.45,0,0,0,2.42,1.51,4.56,4.56,0,0,0,2-.19,3.1,3.1,0,0,0,1.56-1.3A11.92,11.92,0,0,0,69.05,128a26.65,26.65,0,0,0,.88-4.37.62.62,0,0,1,.18-.45.28.28,0,0,1,.29,0,.64.64,0,0,1,.27.26.54.54,0,0,1,.08.39q-.12,1-.2,1.92t-.13,1.88q-.1,1.6-.16,3.21c0,1.07-.1,2.17-.18,3.3a.72.72,0,0,1-.13.39.38.38,0,0,1-.23.15.26.26,0,0,1-.23-.09.47.47,0,0,1-.11-.32,3.83,3.83,0,0,0-.1-.76,1.8,1.8,0,0,0-.25-.62.52.52,0,0,0-.43-.25.87.87,0,0,0-.55.29,9.17,9.17,0,0,1-1,.84,4.21,4.21,0,0,1-1,.51,3.62,3.62,0,0,1-1,.2,7,7,0,0,1-1.12,0c-2.42-.25-5-2.53-6-4.62a33.82,33.82,0,0,1-3-11.6,32.55,32.55,0,0,1,.11-7.47,19.54,19.54,0,0,1,1.65-5.75,10.36,10.36,0,0,1,2.95-3.77A7.35,7.35,0,0,1,63.57,99.6Z" transform="translate(71.21 -16.08)"/><path class="cls-21" d="M86.06,96.68a.72.72,0,0,1,.42,0c.14,0,.2.36.16.93s0,1,0,1.53,0,1.12,0,1.68c0,1.79,0,3.44,0,4.94a.75.75,0,0,1-.13.41.7.7,0,0,1-.28.25.32.32,0,0,1-.3,0c-.09-.05-.15-.19-.16-.42-.07-1.48-.18-2.65-.29-3.48a5.43,5.43,0,0,0-.51-1.85A1.09,1.09,0,0,0,84,100a7.16,7.16,0,0,0-1.53.15l-1.63.39a10.49,10.49,0,0,0-1.13.31,1.21,1.21,0,0,0-.66.58,3.27,3.27,0,0,0-.31,1.26c0,.55-.07,1.31-.07,2.27,0,3.27-.11,6.51-.25,9.77a1.89,1.89,0,0,0,.08.92c.08.11.16.16.25.15a6.9,6.9,0,0,0,1.9-.54,2.56,2.56,0,0,0,1.09-1,4.72,4.72,0,0,0,.56-1.61c.12-.64.23-1.48.32-2.5a1.19,1.19,0,0,1,.18-.54.53.53,0,0,1,.3-.24.28.28,0,0,1,.28.1.67.67,0,0,1,.11.48c0,.6-.07,1.14-.11,1.61s-.09.94-.14,1.4-.1.95-.15,1.45-.11,1.07-.16,1.72c-.09,1.08-.16,2-.2,2.9s-.13,1.89-.29,3.09a.73.73,0,0,1-.17.41.41.41,0,0,1-.28.16.34.34,0,0,1-.25-.1.54.54,0,0,1-.09-.41c.07-1,.1-1.79.09-2.41a2.55,2.55,0,0,0-.31-1.36,1.23,1.23,0,0,0-1-.5,7.92,7.92,0,0,0-1.85.13.47.47,0,0,0-.27.22,1.71,1.71,0,0,0-.18.78c-.2,2.74-.32,4.08-.61,6.66-.12,1.05-.19,1.92-.21,2.63a8.9,8.9,0,0,0,.08,1.71,2.63,2.63,0,0,0,.35,1,1.18,1.18,0,0,0,.62.48,2.41,2.41,0,0,0,.68.1,4.39,4.39,0,0,0,.82-.06,5.69,5.69,0,0,0,1-.27,2.66,2.66,0,0,0,.78-.42,8,8,0,0,0,.92-.86,5.41,5.41,0,0,0,.76-1.12A11.54,11.54,0,0,0,84,127.3c.22-.66.46-1.5.7-2.52a.82.82,0,0,1,.24-.44.8.8,0,0,1,.33-.18.25.25,0,0,1,.27.08.41.41,0,0,1,0,.38c-.34,1.44-.66,2.75-1,3.94s-.61,2.37-.88,3.54a2,2,0,0,1-.18.41.69.69,0,0,1-.48.35,51.29,51.29,0,0,1-8,1.22c-.57,0-1.14.11-1.71.19s-1.09.19-1.52.23a.25.25,0,0,1-.25-.19,1.31,1.31,0,0,1-.06-.48,1.28,1.28,0,0,1,.13-.53A.51.51,0,0,1,72,133a3.47,3.47,0,0,0,1-.41,2.38,2.38,0,0,0,.74-.75,4.72,4.72,0,0,0,.53-1.24,11.45,11.45,0,0,0,.34-1.92c.7-6.63,1-13.27,1.09-19.94,0-.82,0-1.62,0-2.41a20,20,0,0,0-.19-2.19,6.85,6.85,0,0,0-.45-1.71,1.6,1.6,0,0,0-.81-.91,3.39,3.39,0,0,0-.64-.19,2.9,2.9,0,0,0-.64-.07c-.1,0-.2-.07-.26-.25a2.19,2.19,0,0,1-.1-.62,2.42,2.42,0,0,1,.06-.65c0-.2.13-.31.24-.33a12.41,12.41,0,0,1,1.69-.17,10.43,10.43,0,0,0,1.74-.2Q81.22,98.1,86.06,96.68Z" transform="translate(71.21 -16.08)"/><path class="cls-22" d="M91.54,101.52a6.52,6.52,0,0,0-.48-3.06,1.72,1.72,0,0,0-1.9-.92c-.09,0-.16-.06-.2-.27a3.36,3.36,0,0,1-.07-.68,3.53,3.53,0,0,1,.06-.7q.06-.33.22-.38l1-.34a13.8,13.8,0,0,1,1.42-.41,7.58,7.58,0,0,1,1.31-.19c.39,0,.62.06.69.24,3.09,7.7,5.85,15.62,6.33,24,0,.38.15.25.34-.38a111.48,111.48,0,0,0,3.09-13.76c.09-.63.21-1.4.32-2.32s.22-1.91.3-2.86.13-1.85.17-2.71a15.83,15.83,0,0,0,0-2,10.93,10.93,0,0,0-.19-1.37,1.32,1.32,0,0,0-.32-.68.66.66,0,0,0-.54-.17l-.79.09c-.09,0-.15-.06-.19-.27a3.65,3.65,0,0,1-.05-.7,4.88,4.88,0,0,1,.06-.72q.05-.34.21-.4a5.51,5.51,0,0,1,1.36-.33,6.33,6.33,0,0,0,1.46-.36,7.2,7.2,0,0,0,1.37-.69,7.11,7.11,0,0,1,1.53-.73c.11,0,.18,0,.23.24a2.46,2.46,0,0,1,.06.67,3.59,3.59,0,0,1-.11.76c-.06.25-.15.39-.25.43l-.76.45a1.45,1.45,0,0,0-.49.48,3.83,3.83,0,0,0-.39.92c-.12.4-.26,1-.43,1.72-.12.53-.23,1.24-.35,2.13s-.24,1.82-.37,2.8-.26,2-.39,2.92-.25,1.79-.37,2.5a101.79,101.79,0,0,1-6.88,23.13,1.08,1.08,0,0,1-.21.29,1.82,1.82,0,0,1-.3.25.84.84,0,0,1-.26.12c-.07,0-.1,0-.09-.1,1-8-1.22-16-3.68-23.54-.12-.31-.21-.44-.28-.4s-.12.32-.15.84a130.71,130.71,0,0,1-2.92,20c-.29,1.21-.48,2.12-.58,2.74a3.39,3.39,0,0,0,0,1.31.52.52,0,0,0,.42.42,3.65,3.65,0,0,0,.75,0c.07,0,.11.07.1.22a1.87,1.87,0,0,1-.12.5,3.89,3.89,0,0,1-.25.55.63.63,0,0,1-.26.3,3.22,3.22,0,0,1-.95.19,5.24,5.24,0,0,0-1.25.27,9.68,9.68,0,0,0-1.47.59,5.91,5.91,0,0,1-1.1.45c-.07,0-.11,0-.11-.19a2.15,2.15,0,0,1,.06-.49,2.31,2.31,0,0,1,.19-.53.77.77,0,0,1,.27-.33,9.69,9.69,0,0,0,1-.57,2.73,2.73,0,0,0,.77-.79,6.79,6.79,0,0,0,.7-1.52,27.26,27.26,0,0,0,.77-2.8A146.5,146.5,0,0,0,91.54,101.52Z" transform="translate(71.21 -16.08)"/><path class="cls-23" d="M110.41,115.4c-.59,1-1.06,1.83-1.37,2.37a8.55,8.55,0,0,0-.59,1.12c-.07.21-.05.29.08.26a2.68,2.68,0,0,0,.64-.36s0,0-.05.15-.19.27-.32.44l-.42.51a4.23,4.23,0,0,1-.34.36,12.22,12.22,0,0,1-1.12.9c-.32.22-.69.48-1.1.8s-.92.74-1.47,1.2-1,.83-1.4,1.11c-.07,0-.08,0,0-.12a4.43,4.43,0,0,1,.24-.47q.16-.28.36-.57a2.26,2.26,0,0,1,.33-.41q.65-.51,1.1-1a9.31,9.31,0,0,0,.92-1,15.53,15.53,0,0,0,1-1.51c.37-.61.84-1.45,1.38-2.52a87.46,87.46,0,0,0,7.43-24.4c.2-1.48.12-2.39-.18-2.7s-.85-.36-1.64-.15a4.5,4.5,0,0,0-1.66.8,4.29,4.29,0,0,0-1.14,1.56,15,15,0,0,0-.88,2.65c-.27,1.08-.57,2.46-.93,4.11a1.14,1.14,0,0,1-.23.54.55.55,0,0,1-.29.19.21.21,0,0,1-.22-.12.56.56,0,0,1-.06-.38c.27-1.51.48-3.06.63-4.65a43.2,43.2,0,0,0,.19-4.74,1.52,1.52,0,0,1,.41-1.07,2.08,2.08,0,0,1,.84-.52,71.85,71.85,0,0,1,14.81-2.65,1.58,1.58,0,0,1,.86.17c.22.12.31.41.23.8s-.23,1-.38,1.65-.3,1.36-.47,2.12-.35,1.54-.53,2.33-.37,1.53-.56,2.23a1.14,1.14,0,0,1-.25.42.88.88,0,0,1-.35.26.28.28,0,0,1-.27,0c-.07-.05-.08-.19,0-.4a19.48,19.48,0,0,0,.52-3.5,5.49,5.49,0,0,0-.26-2.15,1.68,1.68,0,0,0-.92-1,3.57,3.57,0,0,0-3.38.71,5.94,5.94,0,0,0-.93,2.85A81,81,0,0,1,110.41,115.4Z" transform="translate(71.21 -16.08)"/></svg>