<svg id="Layer_1" data-name="Layer 1" xmlns="http://www.w3.org/2000/svg" viewBox="0 0 294.38 97.14"><defs><style>.cls-1{font-size:22.7px;fill:#f1f2f2;font-family:LibreBaskerville-Bold, Libre Baskerville;font-weight:700;}.cls-2{fill:none;stroke:#f26e75;stroke-linecap:round;stroke-linejoin:round;stroke-width:2.52px;}</style></defs><title>heading-inspiring</title><text class="cls-1" transform="translate(5.34 12.89) rotate(60.74) scale(0.99 1)"> </text><text class="cls-1" transform="matrix(0.54, 0.83, -0.84, 0.54, 8.58, 18.64)"> </text><text class="cls-1" transform="matrix(0.58, 0.8, -0.81, 0.59, 12.15, 24.13)"> </text><text class="cls-1" transform="matrix(0.62, 0.77, -0.77, 0.63, 16.01, 29.39)"> </text><text class="cls-1" transform="matrix(0.72, 0.68, -0.69, 0.72, 19.55, 34.71)">W</text><text class="cls-1" transform="translate(39.5 53.06) rotate(36.29) scale(0.99 1)">e</text><text class="cls-1" transform="translate(50.64 61.09) rotate(32.86) scale(0.99 1)"> </text><text class="cls-1" transform="matrix(0.87, 0.48, -0.48, 0.88, 56.16, 64.87)">B</text><text class="cls-1" transform="matrix(0.91, 0.39, -0.4, 0.92, 72.73, 73.79)">e</text><text class="cls-1" transform="translate(85.37 79.17) rotate(19.92) scale(0.99 1)">l</text><text class="cls-1" transform="translate(93.32 82.04) rotate(17.19) scale(0.99 1)">i</text><text class="cls-1" transform="translate(101.63 84.68) rotate(13.61) scale(0.99 1)">e</text><text class="cls-1" transform="matrix(0.98, 0.16, -0.16, 0.99, 114.86, 87.88)">v</text><text class="cls-1" transform="translate(128.99 90.12) rotate(4.68) scale(0.99 1)">e</text><text class="cls-1" transform="matrix(0.99, 0.02, -0.03, 1, 142.63, 91.12)"> </text><text class="cls-1" transform="translate(149.09 91.31) rotate(-1.22) scale(0.99 1)">I</text><text class="cls-1" transform="matrix(0.98, -0.1, 0.1, 1, 159.49, 91.19)">n</text><text class="cls-1" transform="translate(176.35 89.32) rotate(-9.46) scale(0.99 1)"> </text><text class="cls-1" transform="translate(182.71 88.3) rotate(-12.12) scale(0.99 1)">I</text><text class="cls-1" transform="translate(192.92 86.2) rotate(-16.57) scale(0.99 1)">n</text><text class="cls-1" transform="matrix(0.92, -0.36, 0.36, 0.93, 209.26, 81.19)">s</text><text class="cls-1" transform="matrix(0.89, -0.43, 0.43, 0.9, 219.8, 77.18)">p</text><text class="cls-1" transform="translate(234.47 69.95) rotate(-29.79) scale(0.99 1)">i</text><text class="cls-1" transform="matrix(0.83, -0.54, 0.55, 0.84, 242.03, 65.66)">r</text><text class="cls-1" transform="matrix(0.79, -0.59, 0.6, 0.8, 251.86, 59.15)">i</text><text class="cls-1" transform="matrix(0.74, -0.65, 0.66, 0.75, 259.11, 53.93)">n</text><text class="cls-1" transform="matrix(0.66, -0.73, 0.74, 0.67, 272.1, 42.31)">g</text><path class="cls-2" d="M125.93-10.17C104.06,25.23,54,44.26,15.93,44.26-35,44.26-77.7,17.06-95-10.33" transform="translate(134.18 11.59)"/></svg>