<svg id="Layer_1" data-name="Layer 1" xmlns="http://www.w3.org/2000/svg" viewBox="0 0 150.05 169.05"><defs><style>.cls-1{fill:none;stroke:#fcb849;stroke-linecap:round;stroke-linejoin:round;stroke-width:1.23px;}.cls-2{font-size:26.3px;fill:#231f20;font-family:SourceSansPro-Regular, Source Sans Pro;}.cls-3{font-size:22.21px;fill:#414042;font-family:LibreBaskerville-Bold, Libre Baskerville;font-weight:700;}</style></defs><title>join-lucent-image</title><path class="cls-1" d="M67.34,131.22A65.06,65.06,0,1,1,68.59,15.74" transform="translate(66.27 29.45)"/><text class="cls-2" transform="translate(26.12 122.58) rotate(-108.64)"> </text><text class="cls-2" transform="translate(24.61 118.18) rotate(-104.42)"> </text><text class="cls-3" transform="translate(23.36 113.78) rotate(-99.86)"> </text><text class="cls-3" transform="translate(22.38 108.85) rotate(-93.86)">J</text><text class="cls-3" transform="matrix(0.04, -1, 1, 0.04, 21.61, 101.15)">o</text><text class="cls-3" transform="matrix(0.16, -0.99, 0.99, 0.16, 22.21, 87.54)">i</text><text class="cls-3" transform="translate(22.9 80.71) rotate(-72.85)">n</text><text class="cls-3" transform="translate(27.56 66.51) rotate(-64.87)"> </text><text class="cls-3" transform="matrix(0.55, -0.83, 0.83, 0.55, 29.11, 62.04)">L</text><text class="cls-3" transform="matrix(0.71, -0.7, 0.7, 0.71, 37.26, 49.54)">u</text><text class="cls-3" transform="translate(47.48 39.54) rotate(-34.72)">c</text><text class="cls-3" transform="translate(56.75 33.01) rotate(-26.54)">e</text><text class="cls-3" transform="translate(67.18 27.58) rotate(-17.98)">n</text><text class="cls-3" transform="translate(81.63 23.08) rotate(-11.3)">t</text></svg>