<svg id="Layer_1" data-name="Layer 1" xmlns="http://www.w3.org/2000/svg" xmlns:xlink="http://www.w3.org/1999/xlink" viewBox="0 0 145.22 253.74"><defs><style>.cls-1{fill:url(#radial-gradient);}.cls-2{fill:url(#New_Gradient_Swatch_2);}.cls-3{fill:url(#New_Gradient_Swatch_2-2);}.cls-4{fill:url(#New_Gradient_Swatch_2-3);}.cls-5{fill:url(#New_Gradient_Swatch_2-4);}.cls-6{fill:url(#New_Gradient_Swatch_2-5);}.cls-7{fill:url(#New_Gradient_Swatch_2-6);}.cls-8{fill:url(#New_Gradient_Swatch_2-7);}.cls-9{fill:url(#New_Gradient_Swatch_2-8);}.cls-10{fill:url(#New_Gradient_Swatch_2-9);}.cls-11{fill:url(#New_Gradient_Swatch_2-10);}.cls-12{fill:url(#New_Gradient_Swatch_2-11);}.cls-13{fill:url(#New_Gradient_Swatch_2-12);}.cls-14{fill:url(#New_Gradient_Swatch_2-13);}.cls-15{fill:url(#New_Gradient_Swatch_2-14);}.cls-16{fill:url(#New_Gradient_Swatch_2-15);}.cls-17{fill:url(#New_Gradient_Swatch_2-16);}.cls-18{fill:url(#New_Gradient_Swatch_2-17);}.cls-19{fill:url(#New_Gradient_Swatch_2-18);}.cls-20{fill:url(#New_Gradient_Swatch_2-19);}.cls-21{fill:url(#New_Gradient_Swatch_2-20);}.cls-22,.cls-40,.cls-41,.cls-42,.cls-43,.cls-44,.cls-45{fill:none;stroke-miterlimit:10;}.cls-22{stroke:#fcb849;stroke-width:0.54px;}.cls-23,.cls-24,.cls-25,.cls-32{font-size:9px;}.cls-23{fill:#fcb849;}.cls-23,.cls-24{font-family:LibreBaskerville-Bold, Libre Baskerville;}.cls-23,.cls-24,.cls-32{font-weight:700;}.cls-24{fill:#eca9bf;}.cls-25,.cls-32{fill:#f1f2f2;}.cls-25,.cls-37,.cls-38{font-family:PTSans-Regular, PT Sans;}.cls-26{letter-spacing:-0.01em;}.cls-27{letter-spacing:-0.01em;}.cls-28{letter-spacing:-0.01em;}.cls-29,.cls-37{letter-spacing:-0.02em;}.cls-30{letter-spacing:0.02em;}.cls-31{letter-spacing:-0.08em;}.cls-32{font-family:PTSans-Bold, PT Sans;}.cls-33{letter-spacing:-0.02em;}.cls-34{letter-spacing:0em;}.cls-35{letter-spacing:-0.01em;}.cls-36{letter-spacing:-0.02em;}.cls-37,.cls-38{font-weight:400;}.cls-39{opacity:0.56;}.cls-40,.cls-41,.cls-42,.cls-43,.cls-44,.cls-45{stroke:#414042;}.cls-40,.cls-41,.cls-42{stroke-width:0.5px;}.cls-41{stroke-dasharray:1.93 1.93;}.cls-42{stroke-dasharray:1.92 1.92;}.cls-43,.cls-44,.cls-45{stroke-width:0.5px;}.cls-44{stroke-dasharray:2.72 2.72;}.cls-45{stroke-dasharray:2.71 2.71;}.cls-46{fill:#414042;}</style><radialGradient id="radial-gradient" cx="325.38" cy="385.17" r="92.18" gradientUnits="userSpaceOnUse"><stop offset="0" stop-color="#fff"/><stop offset="0.12" stop-color="#fef5f6"/><stop offset="0.33" stop-color="#fcdadc"/><stop offset="0.6" stop-color="#f8afb3"/><stop offset="0.91" stop-color="#f2737a"/><stop offset="0.94" stop-color="#f26e75"/></radialGradient><radialGradient id="New_Gradient_Swatch_2" cx="303.32" cy="365.12" r="5.03" gradientUnits="userSpaceOnUse"><stop offset="0.6" stop-color="#fdb93f"/><stop offset="0.98" stop-color="#e699c2"/></radialGradient><radialGradient id="New_Gradient_Swatch_2-2" cx="311.92" cy="363.92" r="6.67" xlink:href="#New_Gradient_Swatch_2"/><radialGradient id="New_Gradient_Swatch_2-3" cx="320.08" cy="364.54" r="7.86" xlink:href="#New_Gradient_Swatch_2"/><radialGradient id="New_Gradient_Swatch_2-4" cx="328.05" cy="364.58" r="7.75" xlink:href="#New_Gradient_Swatch_2"/><radialGradient id="New_Gradient_Swatch_2-5" cx="335.68" cy="364.3" r="7.53" xlink:href="#New_Gradient_Swatch_2"/><radialGradient id="New_Gradient_Swatch_2-6" cx="343.11" cy="363.25" r="5.18" xlink:href="#New_Gradient_Swatch_2"/><radialGradient id="New_Gradient_Swatch_2-7" cx="298.08" cy="382.59" r="6.38" xlink:href="#New_Gradient_Swatch_2"/><radialGradient id="New_Gradient_Swatch_2-8" cx="305.25" cy="383.4" r="7.51" xlink:href="#New_Gradient_Swatch_2"/><radialGradient id="New_Gradient_Swatch_2-9" cx="313.26" cy="384.91" r="6.17" xlink:href="#New_Gradient_Swatch_2"/><radialGradient id="New_Gradient_Swatch_2-10" cx="319.34" cy="385.45" r="5.54" xlink:href="#New_Gradient_Swatch_2"/><radialGradient id="New_Gradient_Swatch_2-11" cx="326.48" cy="385.38" r="5.79" xlink:href="#New_Gradient_Swatch_2"/><radialGradient id="New_Gradient_Swatch_2-12" cx="335.62" cy="383.31" r="6.66" xlink:href="#New_Gradient_Swatch_2"/><radialGradient id="New_Gradient_Swatch_2-13" cx="343.54" cy="379.37" r="5.96" xlink:href="#New_Gradient_Swatch_2"/><radialGradient id="New_Gradient_Swatch_2-14" cx="351.51" cy="376.83" r="6.43" xlink:href="#New_Gradient_Swatch_2"/><radialGradient id="New_Gradient_Swatch_2-15" cx="303.07" cy="403.39" r="7.22" xlink:href="#New_Gradient_Swatch_2"/><radialGradient id="New_Gradient_Swatch_2-16" cx="309.57" cy="405.36" r="7.15" xlink:href="#New_Gradient_Swatch_2"/><radialGradient id="New_Gradient_Swatch_2-17" cx="321.02" cy="406.77" r="7.34" xlink:href="#New_Gradient_Swatch_2"/><radialGradient id="New_Gradient_Swatch_2-18" cx="329.77" cy="405.98" r="7.76" xlink:href="#New_Gradient_Swatch_2"/><radialGradient id="New_Gradient_Swatch_2-19" cx="339.19" cy="403.3" r="9.53" xlink:href="#New_Gradient_Swatch_2"/><radialGradient id="New_Gradient_Swatch_2-20" cx="348.94" cy="400.21" r="8.69" xlink:href="#New_Gradient_Swatch_2"/></defs><path class="cls-1" d="M330.11,499.47l-9.46-.1a58,58,0,0,1-57.95-57.94V328.81a58,58,0,0,1,57.95-57.95h9.46a58,58,0,0,1,57.94,57.95V441.43A58,58,0,0,1,330.11,499.47Z" transform="translate(-251.35 -261.59)"/><path class="cls-2" d="M304.56,362.76l.49-.63a2.71,2.71,0,0,0,.25-.36c0-.07,0-.09,0-.07a1.62,1.62,0,0,0-.31.21s0,0,0,0l.1-.11.15-.13.13-.12.56-.45.6-.46.34-.25.32-.25.32-.24.34-.24s.05,0,0,0a.75.75,0,0,1-.08.14l-.13.18a.66.66,0,0,1-.12.12,5.65,5.65,0,0,0-.51.39,4.44,4.44,0,0,0-.44.43c-.14.15-.29.33-.45.53s-.33.46-.53.77a38.23,38.23,0,0,0-2.76,5c-.14.33-.25.6-.32.82a1.59,1.59,0,0,0-.09.57.54.54,0,0,0,.15.36,1.34,1.34,0,0,0,.37.26,2.74,2.74,0,0,0,.39.1l.47.08.59,0a1.39,1.39,0,0,0,.45-.05,3,3,0,0,0,.51-.21,1.34,1.34,0,0,0,.41-.35,2.41,2.41,0,0,0,.36-.58,8.29,8.29,0,0,0,.37-.92.23.23,0,0,1,.13-.14.47.47,0,0,1,.17,0,.17.17,0,0,1,.13.07.13.13,0,0,1,0,.15c-.17.54-.33,1-.47,1.5a13.34,13.34,0,0,0-.35,1.45.46.46,0,0,1-.08.16c-.05.06-.14.08-.28.05a37.63,37.63,0,0,0-4.85-.63,9,9,0,0,0-1,0l-1,.1a.09.09,0,0,1-.11-.06.24.24,0,0,1,0-.15.64.64,0,0,1,.13-.17.5.5,0,0,1,.19-.1c.3-.06.54-.11.74-.17a1.52,1.52,0,0,0,.48-.22,1.57,1.57,0,0,0,.38-.42c.12-.18.26-.44.43-.75a37.92,37.92,0,0,1,3.39-5.28Z" transform="translate(-251.35 -261.59)"/><path class="cls-3" d="M314.23,365.94a26.32,26.32,0,0,1-.42,3,7.57,7.57,0,0,1-.75,2.11,2.4,2.4,0,0,1-1.15,1.09,2.47,2.47,0,0,1-1.65,0,4.61,4.61,0,0,1-1.55-.78,3.1,3.1,0,0,1-.95-1.23,4.18,4.18,0,0,1-.32-1.73,9.84,9.84,0,0,1,.34-2.32q.66-2.64,1.55-5.21.19-.56.3-.93a2.38,2.38,0,0,0,.11-.57c0-.13-.05-.21-.13-.24a.59.59,0,0,0-.39.08s-.05,0,0,0a.7.7,0,0,1,.06-.17,1.18,1.18,0,0,1,.11-.19.31.31,0,0,1,.12-.13,6.16,6.16,0,0,1,.63-.32c.23-.1.46-.2.68-.32l.38-.2.35-.21a2.5,2.5,0,0,1,.35-.21,3.2,3.2,0,0,1,.37-.19s.06,0,.06.06a1,1,0,0,1-.05.21,1.17,1.17,0,0,1-.09.24c0,.08-.08.13-.11.14a2.37,2.37,0,0,0-.53.37,1.92,1.92,0,0,0-.39.49,4.88,4.88,0,0,0-.34.72c-.1.29-.22.65-.34,1.08q-.76,2.7-1.34,5.44a8.27,8.27,0,0,0-.2,1.68,5.28,5.28,0,0,0,.17,1.48,3.55,3.55,0,0,0,.57,1.17,1.87,1.87,0,0,0,1,.65,1.67,1.67,0,0,0,2-.84,11,11,0,0,0,1-4.14c.17-1.68.26-2.51.48-4.14,0-.26.07-.57.13-.94s.1-.76.15-1.13.09-.73.12-1.06.06-.59.07-.77,0-.44,0-.56a.46.46,0,0,0-.09-.24.17.17,0,0,0-.18,0l-.29,0s0,0,0-.09a1.1,1.1,0,0,1,0-.25,1.82,1.82,0,0,1,.07-.25.23.23,0,0,1,.1-.14,1.64,1.64,0,0,1,.49-.1,2.64,2.64,0,0,0,.53-.11,2.87,2.87,0,0,0,.54-.25,2.74,2.74,0,0,1,.6-.27s.06,0,.07.1a.78.78,0,0,1,0,.26,1.5,1.5,0,0,1-.06.29c0,.09-.07.15-.11.16l-.3.14a.41.41,0,0,0-.2.15,1.52,1.52,0,0,0-.17.34c-.06.14-.13.36-.22.64s-.12.47-.19.81-.12.71-.18,1.09-.11.76-.16,1.16-.08.73-.12,1C314.48,363.42,314.39,364.25,314.23,365.94Z" transform="translate(-251.35 -261.59)"/><path class="cls-4" d="M320.87,354.15a1.21,1.21,0,0,1,.87.18,3.93,3.93,0,0,1,.8.75l.22.25q.11.12.18.12c.12,0,.2-.2.24-.56a.3.3,0,0,1,.07-.18.13.13,0,0,1,.12,0,.19.19,0,0,1,.11.07.21.21,0,0,1,0,.17c0,.31-.06.63-.07,1s0,.67,0,1c0,.54,0,1.09,0,1.63s.07,1.12.1,1.71a.36.36,0,0,1-.05.19.31.31,0,0,1-.13.1.21.21,0,0,1-.15,0,.34.34,0,0,1-.08-.21,12,12,0,0,0-.89-3.82c-.4-.78-.9-1.13-1.51-1.05a1.75,1.75,0,0,0-1.23.94,8.53,8.53,0,0,0-.87,2.07,18.46,18.46,0,0,0-.57,2.71c-.14,1-.23,1.94-.28,2.88a30.31,30.31,0,0,0,0,3.16,17.64,17.64,0,0,0,.4,3,8.24,8.24,0,0,0,.88,2.3,2,2,0,0,0,1.4,1.07,2,2,0,0,0,1.13-.13,1.68,1.68,0,0,0,.81-.91,8.68,8.68,0,0,0,.62-2.11,23.94,23.94,0,0,0,.29-2.8.43.43,0,0,1,.07-.28.12.12,0,0,1,.15,0,.51.51,0,0,1,.14.17.42.42,0,0,1,.05.24c0,.41,0,.81,0,1.21s0,.81,0,1.22c0,.7.05,1.42.09,2.15s.09,1.52.14,2.34a.72.72,0,0,1,0,.28.2.2,0,0,1-.13.1.16.16,0,0,1-.14-.06.52.52,0,0,1-.08-.24,4.46,4.46,0,0,0-.11-.55,1.56,1.56,0,0,0-.19-.45.29.29,0,0,0-.25-.18c-.09,0-.19.06-.29.2a4.72,4.72,0,0,1-.55.6,2.08,2.08,0,0,1-.54.37,1.59,1.59,0,0,1-.57.14,2.57,2.57,0,0,1-.67,0,4.71,4.71,0,0,1-3.43-3.26,18,18,0,0,1-.72-7.14,22.32,22.32,0,0,1,.63-4.13,17.25,17.25,0,0,1,1.08-3.09,7.72,7.72,0,0,1,1.35-2.07A2.73,2.73,0,0,1,320.87,354.15Z" transform="translate(-251.35 -261.59)"/><path class="cls-5" d="M329.75,354.68a.34.34,0,0,1,.17.07.74.74,0,0,1,.09.45q0,.3,0,.69c0,.25,0,.51,0,.77q.09,1.24.21,2.34a.34.34,0,0,1,0,.18.21.21,0,0,1-.11.08.2.2,0,0,1-.14-.05.46.46,0,0,1-.09-.23c-.1-.73-.19-1.31-.27-1.72a3.87,3.87,0,0,0-.28-1,.83.83,0,0,0-.4-.44,2.61,2.61,0,0,0-.63-.16l-.66,0a3.47,3.47,0,0,0-.46,0,.34.34,0,0,0-.27.21,1.53,1.53,0,0,0-.11.59,10.42,10.42,0,0,0,0,1.13c.06,1.71.12,3.43.19,5.15a1.39,1.39,0,0,0,.08.52.17.17,0,0,0,.13.1,2.4,2.4,0,0,0,.86-.14.83.83,0,0,0,.46-.44,2.34,2.34,0,0,0,.17-.81c0-.33,0-.75,0-1.28a.59.59,0,0,1,.06-.26.15.15,0,0,1,.12-.08c.05,0,.09,0,.14.09a.51.51,0,0,1,.07.26c0,.3,0,.58,0,.82s0,.48,0,.73,0,.49,0,.75,0,.57,0,.92c0,.59.08,1.12.14,1.6s.1,1.07.15,1.76a.33.33,0,0,1-.05.23.16.16,0,0,1-.13.07.23.23,0,0,1-.14-.08.39.39,0,0,1-.09-.25c-.06-.57-.12-1-.18-1.39a2.12,2.12,0,0,0-.27-.8.82.82,0,0,0-.5-.37,3.23,3.23,0,0,0-.89-.07s-.08,0-.12.11a1.15,1.15,0,0,0,0,.44c.07,1.57.11,2.37.18,4,0,.65.08,1.21.14,1.67a7.17,7.17,0,0,0,.23,1.13,2.53,2.53,0,0,0,.33.68,1,1,0,0,0,.42.34,1.3,1.3,0,0,0,.41.09,2.58,2.58,0,0,0,.48,0,2.65,2.65,0,0,0,.57-.15,1,1,0,0,0,.4-.25,2.78,2.78,0,0,0,.4-.52,2.41,2.41,0,0,0,.27-.68,6,6,0,0,0,.13-1c0-.39,0-.88,0-1.47a.34.34,0,0,1,.07-.25.21.21,0,0,1,.15-.07.17.17,0,0,1,.16.06.32.32,0,0,1,.08.23c0,.81.05,1.58.08,2.3s.07,1.45.14,2.2a.68.68,0,0,1,0,.26.27.27,0,0,1-.23.22,31.08,31.08,0,0,1-4.71.68,7.79,7.79,0,0,0-1,.12c-.32,0-.62.12-.86.15-.06,0-.12-.05-.16-.15a1.31,1.31,0,0,1-.08-.34,1.17,1.17,0,0,1,0-.38c0-.11.08-.18.16-.2a1.44,1.44,0,0,0,.52-.28,1.32,1.32,0,0,0,.35-.51,3.35,3.35,0,0,0,.17-.84,8.48,8.48,0,0,0,0-1.27q-.22-5.84-.38-11.66c0-.43,0-.85,0-1.26s-.06-.79-.1-1.14a4.7,4.7,0,0,0-.19-.9,1.06,1.06,0,0,0-.33-.52.94.94,0,0,0-.26-.14.7.7,0,0,0-.26-.08s-.08,0-.1-.15a1.48,1.48,0,0,1,0-.31,1.58,1.58,0,0,1,0-.32c0-.1.05-.15.1-.15a2.81,2.81,0,0,1,.67.05,6.52,6.52,0,0,0,.71.06A26.94,26.94,0,0,1,329.75,354.68Z" transform="translate(-251.35 -261.59)"/><path class="cls-6" d="M332.24,357.91a4.45,4.45,0,0,0-.36-1.44,1.53,1.53,0,0,0-.84-.8s-.06-.06-.09-.16a1.67,1.67,0,0,1-.05-.31,1.4,1.4,0,0,1,0-.29c0-.09,0-.13.08-.12l.4.07.56.15a3.68,3.68,0,0,1,.53.23.69.69,0,0,1,.29.26A66.86,66.86,0,0,0,339,367q.19.25.12-.15-.53-2.67-1.09-5.33c0-.23-.1-.51-.17-.83s-.15-.68-.23-1l-.23-.94c-.08-.3-.15-.54-.21-.71s-.15-.39-.21-.52a1.36,1.36,0,0,0-.2-.32,1,1,0,0,0-.23-.19l-.32-.17s-.07-.06-.1-.15a2,2,0,0,1-.08-.26,2,2,0,0,1,0-.23c0-.07,0-.1.05-.08a3.45,3.45,0,0,1,.52.25,4.07,4.07,0,0,0,.56.27,2.54,2.54,0,0,0,.48.14,2.43,2.43,0,0,1,.54.18.3.3,0,0,1,.11.13,1,1,0,0,1,.09.22.75.75,0,0,1,0,.2c0,.06,0,.09-.06.07l-.26-.05a.19.19,0,0,0-.15,0,.42.42,0,0,0-.07.2,3.57,3.57,0,0,0,0,.47,5.75,5.75,0,0,0,.08.64c.05.28.1.58.17.91l.21,1c.08.33.15.62.2.87q1,4.63,2,9.28a.2.2,0,0,1,0,.14.47.47,0,0,1-.15.13.71.71,0,0,1-.18.08.14.14,0,0,1-.13,0,64.13,64.13,0,0,1-6.86-11.67c-.08-.16-.13-.24-.16-.23s0,.12,0,.35c.37,3.26.72,6.53,1.07,9.79a13.91,13.91,0,0,0,.24,1.53,2.08,2.08,0,0,0,.3.76.61.61,0,0,0,.4.25,3.94,3.94,0,0,0,.52,0s.09,0,.13.12a1.12,1.12,0,0,1,.07.29c0,.1,0,.21,0,.31s-.05.15-.1.17a2.29,2.29,0,0,1-.62.11,2.87,2.87,0,0,0-.8.14,4.43,4.43,0,0,0-.85.34,2.37,2.37,0,0,1-.62.27s-.08,0-.12-.12a2.38,2.38,0,0,1-.07-.31,1.82,1.82,0,0,1,0-.33.29.29,0,0,1,.1-.2,4.06,4.06,0,0,0,.54-.32.92.92,0,0,0,.31-.46,2.77,2.77,0,0,0,.11-.88c0-.38,0-.91-.1-1.58Z" transform="translate(-251.35 -261.59)"/><path class="cls-7" d="M345.53,365.83a5.71,5.71,0,0,0,.34.67.64.64,0,0,0,.32.3.58.58,0,0,0,.41,0,4.66,4.66,0,0,0,.61-.25.16.16,0,0,1,.15,0,.22.22,0,0,1,.1.11.19.19,0,0,1,0,.15.16.16,0,0,1-.08.13,6.32,6.32,0,0,1-.88.52c-.29.14-.57.29-.85.46s-.58.38-.87.61a9,9,0,0,1-.83.57.11.11,0,0,1-.13,0,.46.46,0,0,1-.09-.17.56.56,0,0,1,0-.22.25.25,0,0,1,.07-.17,4,4,0,0,0,.53-.43.93.93,0,0,0,.25-.94,5.26,5.26,0,0,0-.25-.81c-.82-2.2-1.7-4.39-2.69-6.52a2.41,2.41,0,0,0-.47-.72,2.27,2.27,0,0,0-.64-.4,1.35,1.35,0,0,0-.54-.16.24.24,0,0,0-.26.18,1.62,1.62,0,0,0,0,.61q0,.41.18,1.11c0,.08,0,.12,0,.14a.11.11,0,0,1-.1,0,.28.28,0,0,1-.12-.08.31.31,0,0,1-.09-.14c-.1-.45-.22-.91-.36-1.37s-.28-.94-.46-1.41q-.06-.19.06-.21a.6.6,0,0,1,.26.07,30.17,30.17,0,0,1,4.74,2.81l.29.21.22.18.22.18.29.26.36.31.36.31s0,0,0,.05h-.07l-.12,0-.12-.08-.65-.57-.54-.44c-.17-.13-.34-.26-.51-.37s-.34-.22-.53-.33a1.35,1.35,0,0,0-.51-.2c-.08,0,0,.17.14.47C343.7,362,344.63,363.92,345.53,365.83Z" transform="translate(-251.35 -261.59)"/><path class="cls-8" d="M297.23,377.59c.1-.49.19-.91.25-1.25a3.24,3.24,0,0,0,.06-.83.66.66,0,0,0-.21-.46.83.83,0,0,0-.54-.16c-.05,0-.08,0-.07-.11a.85.85,0,0,1,0-.25,1.08,1.08,0,0,1,.12-.24.25.25,0,0,1,.15-.13,6,6,0,0,1,.87,0c.32,0,.63,0,.93,0l.5,0,.46-.05.45,0a4.09,4.09,0,0,1,.5,0s.07,0,.07.12a1.32,1.32,0,0,1-.05.26,1.11,1.11,0,0,1-.12.27c0,.09-.1.13-.14.13a1.75,1.75,0,0,0-.68.18,1.33,1.33,0,0,0-.49.46,3.49,3.49,0,0,0-.38.84,13.09,13.09,0,0,0-.34,1.35,47.62,47.62,0,0,0-.75,9.9,10.28,10.28,0,0,0,.14,1.31,2.52,2.52,0,0,0,.25.75,1.19,1.19,0,0,0,.42.44,3.39,3.39,0,0,0,.66.32.37.37,0,0,1,.14.19,1.11,1.11,0,0,1,.08.3.78.78,0,0,1,0,.27c0,.08-.05.11-.11.1a5.56,5.56,0,0,1-1-.32,6.47,6.47,0,0,0-.95-.3,5.49,5.49,0,0,0-1-.14,5.09,5.09,0,0,1-.93-.13.25.25,0,0,1-.13-.15.77.77,0,0,1-.08-.27,1.13,1.13,0,0,1,0-.26q0-.12.09-.12a2.23,2.23,0,0,0,.62,0,.5.5,0,0,0,.33-.27,1.54,1.54,0,0,0,.11-.66c0-.29,0-.71-.05-1.26A43.06,43.06,0,0,1,297.23,377.59Z" transform="translate(-251.35 -261.59)"/><path class="cls-9" d="M302.16,376.88a3,3,0,0,0,0-1.33,1,1,0,0,0-.73-.71s-.06,0-.06-.14a1.26,1.26,0,0,1,0-.27,1,1,0,0,1,.11-.26c0-.08.08-.12.13-.11l.47,0a5,5,0,0,1,.64.11,2.62,2.62,0,0,1,.56.19c.17.07.25.16.27.24a70,70,0,0,0,3.89,13.06c.11.24.16.2.16-.11,0-2.1,0-4.19.19-6.28,0-.27.06-.59.09-1l.12-1.17c0-.38.07-.74.11-1.08s.05-.61.05-.81a4.4,4.4,0,0,0,0-.58,1,1,0,0,0-.11-.35.58.58,0,0,0-.23-.21l-.35-.18s-.06-.06-.06-.15a.88.88,0,0,1,0-.28,1.49,1.49,0,0,1,.07-.25c0-.07.08-.11.12-.09a3.48,3.48,0,0,1,.6.23,3.9,3.9,0,0,0,.64.26,3.44,3.44,0,0,0,.63.1,4.11,4.11,0,0,1,.69.13.18.18,0,0,1,.08.15,1.13,1.13,0,0,1,0,.26,1,1,0,0,1-.08.25c0,.08-.08.11-.13.1l-.35,0a.37.37,0,0,0-.23.05.79.79,0,0,0-.21.25,4.78,4.78,0,0,0-.25.56,6.79,6.79,0,0,0-.2.75c-.07.33-.14.69-.19,1.07s-.11.77-.14,1.17-.07.74-.09,1a75.59,75.59,0,0,0,.1,11.06.14.14,0,0,1-.06.12.31.31,0,0,1-.17.05l-.19,0a.23.23,0,0,1-.12-.12,77.88,77.88,0,0,1-5.31-14.08c0-.16-.08-.24-.11-.24s-.07.11-.11.33a59.24,59.24,0,0,0-.54,9.5,10.82,10.82,0,0,0,.15,1.48,2.52,2.52,0,0,0,.28.8,1.17,1.17,0,0,0,.4.4,5.51,5.51,0,0,0,.54.26.27.27,0,0,1,.13.17.72.72,0,0,1,.06.29.84.84,0,0,1,0,.28c0,.08,0,.12-.1.11a2.88,2.88,0,0,1-.64-.2,3.61,3.61,0,0,0-.82-.23,4.07,4.07,0,0,0-.87-.08,2.51,2.51,0,0,1-.63,0s-.08-.06-.12-.15a1.23,1.23,0,0,1-.07-.29.61.61,0,0,1,0-.27c0-.08.05-.12.1-.13a3.69,3.69,0,0,0,.55-.06.47.47,0,0,0,.33-.27,1.9,1.9,0,0,0,.14-.73c0-.34,0-.82,0-1.45A55.4,55.4,0,0,1,302.16,376.88Z" transform="translate(-251.35 -261.59)"/><path class="cls-10" d="M312,379.58a3.83,3.83,0,0,0,.06,1.2,3.12,3.12,0,0,0,.35.89,3.55,3.55,0,0,0,.51.68l.56.59c.31.33.63.68.94,1a7.54,7.54,0,0,1,.86,1.19,6.61,6.61,0,0,1,.65,1.54,8.16,8.16,0,0,1,.31,2.09,6.28,6.28,0,0,1-.17,2,3.64,3.64,0,0,1-.64,1.34,2.33,2.33,0,0,1-.95.75,2.67,2.67,0,0,1-1.11.21,2.26,2.26,0,0,1-.84-.24,3.07,3.07,0,0,1-.89-.67l-.13-.11a.2.2,0,0,0-.15-.06.25.25,0,0,0-.19.13,1.38,1.38,0,0,0-.14.51.26.26,0,0,1-.08.19.17.17,0,0,1-.14,0,.17.17,0,0,1-.12-.1.27.27,0,0,1-.06-.17c0-.36,0-.76,0-1.18s0-.85,0-1.28-.05-.87-.08-1.31-.07-.9-.11-1.37a.38.38,0,0,1,0-.25c.05-.06.09-.1.15-.1a.26.26,0,0,1,.15.07.44.44,0,0,1,.08.23,11.29,11.29,0,0,0,.35,1.9,6.42,6.42,0,0,0,.6,1.46,3.29,3.29,0,0,0,.77.95,1.49,1.49,0,0,0,.9.36A1.28,1.28,0,0,0,314,392a1.51,1.51,0,0,0,.53-.51,2.36,2.36,0,0,0,.34-.82,4.2,4.2,0,0,0,.08-1.16,5.59,5.59,0,0,0-.26-1.51,6.34,6.34,0,0,0-.53-1.17,6.27,6.27,0,0,0-.67-.89l-.69-.73-.84-.88a4.92,4.92,0,0,1-.73-1.07,5.31,5.31,0,0,1-.46-1.41,6.89,6.89,0,0,1-.06-1.91,5.5,5.5,0,0,1,.44-1.81,2.73,2.73,0,0,1,.77-1,1.86,1.86,0,0,1,.95-.38,2.61,2.61,0,0,1,1,.11,2.17,2.17,0,0,1,.55.23,4.59,4.59,0,0,1,.48.39l.25.21a.5.5,0,0,0,.19.1c.09,0,.17,0,.22-.15a.13.13,0,0,1,.1-.09.17.17,0,0,1,.12,0l.11.08a.19.19,0,0,1,0,.13,5.88,5.88,0,0,0-.14.73c0,.24-.05.51-.07.79s0,.7,0,1,0,.67,0,1.1a.16.16,0,0,1-.05.11.17.17,0,0,1-.12,0,.21.21,0,0,1-.13-.05.24.24,0,0,1-.07-.17c-.06-.66-.12-1.21-.19-1.64a4.24,4.24,0,0,0-.29-1,1.56,1.56,0,0,0-.49-.6,2.18,2.18,0,0,0-.72-.33,1.15,1.15,0,0,0-.58,0,1.2,1.2,0,0,0-.52.3,1.91,1.91,0,0,0-.41.64A3.72,3.72,0,0,0,312,379.58Z" transform="translate(-251.35 -261.59)"/><path class="cls-11" d="M318.33,381.26c0-.43,0-.79,0-1.1a2.87,2.87,0,0,0-.14-.75,1.37,1.37,0,0,0-.33-.5,1.82,1.82,0,0,0-.59-.32c-.05,0-.08,0-.1-.13a.65.65,0,0,1,0-.24.46.46,0,0,1,.05-.21c0-.06.06-.09.11-.08.25.06.54.15.87.26a6,6,0,0,0,.92.24l.48.07.43,0,.44,0a4.45,4.45,0,0,1,.47.05c.05,0,.08,0,.1.1a.76.76,0,0,1,0,.21.8.8,0,0,1,0,.21c0,.06-.05.1-.09.09a1.79,1.79,0,0,0-.62.08.7.7,0,0,0-.36.34,2,2,0,0,0-.17.67c0,.29,0,.66,0,1.12,0,2.81.11,5.61.26,8.42a10.05,10.05,0,0,0,.12,1.13,1.58,1.58,0,0,0,.23.62.83.83,0,0,0,.41.3,3.1,3.1,0,0,0,.65.11.26.26,0,0,1,.13.14.84.84,0,0,1,.06.24.47.47,0,0,1,0,.24c0,.08-.07.12-.13.12a4.75,4.75,0,0,1-1,0,5.06,5.06,0,0,0-.95,0,6.19,6.19,0,0,0-1,.13,6,6,0,0,1-.95.12c-.06,0-.1,0-.13-.11a1,1,0,0,1-.06-.25.74.74,0,0,1,0-.26c0-.09.06-.14.11-.15a2.71,2.71,0,0,0,.63-.18.79.79,0,0,0,.36-.34,1.53,1.53,0,0,0,.14-.65c0-.27,0-.66,0-1.16C318.39,387,318.32,384.13,318.33,381.26Z" transform="translate(-251.35 -261.59)"/><path class="cls-12" d="M330.29,389.59c0,.11,0,.18-.05.21-.21.31-.41.59-.61.84a3.6,3.6,0,0,1-.67.68,3.71,3.71,0,0,1-.9.51,6.21,6.21,0,0,1-1.24.35,3.26,3.26,0,0,1-1.9-.19,3.58,3.58,0,0,1-1.46-1.27,7.4,7.4,0,0,1-1-2.26,15,15,0,0,1-.44-3.13,12.06,12.06,0,0,1,.22-3.07,6.39,6.39,0,0,1,.84-2.1,3.49,3.49,0,0,1,2.92-1.64,2.93,2.93,0,0,1,1.1.15,5.75,5.75,0,0,1,1,.42,1.34,1.34,0,0,0,.44.15c.12,0,.19-.11.21-.34a.13.13,0,0,1,.06-.12.21.21,0,0,1,.12,0,.16.16,0,0,1,.12,0,.1.1,0,0,1,.06.1,7.08,7.08,0,0,0,.13,1.45c.09.54.19,1.11.3,1.69a.24.24,0,0,1,0,.18.33.33,0,0,1-.13.11.19.19,0,0,1-.15,0,.17.17,0,0,1-.1-.14,4.09,4.09,0,0,0-1.19-2.25,2.65,2.65,0,0,0-1.94-.64,1.7,1.7,0,0,0-1.16.51,3.53,3.53,0,0,0-.76,1.26,7.55,7.55,0,0,0-.39,1.82,13.24,13.24,0,0,0,0,2.09,16.82,16.82,0,0,0,.34,2.73,8.46,8.46,0,0,0,.68,2.08,3.31,3.31,0,0,0,1,1.25,1.58,1.58,0,0,0,1.25.28,4.2,4.2,0,0,0,.91-.27,1.86,1.86,0,0,0,.67-.54,2.07,2.07,0,0,0,.41-.87,4.25,4.25,0,0,0,.09-1.29,5.64,5.64,0,0,0-.11-.93,1.07,1.07,0,0,0-.23-.49.67.67,0,0,0-.4-.18,5.6,5.6,0,0,0-.64,0,.13.13,0,0,1-.14-.08.65.65,0,0,1-.05-.2.68.68,0,0,1,0-.21.13.13,0,0,1,.1-.11l.93-.1a6.22,6.22,0,0,0,.85-.1l.34-.08.33-.1.36-.1.45-.12s.08,0,.1.07a.38.38,0,0,1,.05.19.46.46,0,0,1,0,.2.23.23,0,0,1-.1.13,1.69,1.69,0,0,0-.43.23.79.79,0,0,0-.2.33,2,2,0,0,0-.05.46c0,.18,0,.4,0,.65C330.23,388.48,330.26,388.85,330.29,389.59Z" transform="translate(-251.35 -261.59)"/><path class="cls-13" d="M337.55,381.79a.29.29,0,0,0,.2-.15.43.43,0,0,0,0-.31c-.17-1-.26-1.44-.48-2.34a7.47,7.47,0,0,0-.27-.86,1.5,1.5,0,0,0-.32-.52.78.78,0,0,0-.42-.22,1.55,1.55,0,0,0-.62.05.09.09,0,0,1-.12-.05.5.5,0,0,1-.11-.35.12.12,0,0,1,.08-.11c.24-.08.52-.17.84-.25a6.65,6.65,0,0,0,.89-.28l.44-.19.39-.19.38-.2.43-.2a.11.11,0,0,1,.13,0,.6.6,0,0,1,.08.16.63.63,0,0,1,0,.19c0,.07,0,.11-.06.13a2,2,0,0,0-.52.37.8.8,0,0,0-.22.44,1.73,1.73,0,0,0,0,.63c0,.24.12.55.22.93a35.23,35.23,0,0,1,1.08,7.08,8.06,8.06,0,0,0,.09,1,1.09,1.09,0,0,0,.18.49.41.41,0,0,0,.37.15,2.72,2.72,0,0,0,.6-.09.13.13,0,0,1,.12.07.65.65,0,0,1,0,.2.59.59,0,0,1-.05.23.22.22,0,0,1-.13.15,5.56,5.56,0,0,1-.94.29,7.39,7.39,0,0,0-.88.27,8.28,8.28,0,0,0-1,.45,8.86,8.86,0,0,1-.9.43.09.09,0,0,1-.11-.06.42.42,0,0,1,0-.2.59.59,0,0,1,0-.23.24.24,0,0,1,.11-.16,3.85,3.85,0,0,0,.61-.38,1.18,1.18,0,0,0,.35-.42,1.62,1.62,0,0,0,.16-.63,6.7,6.7,0,0,0,0-1c-.07-1.28-.12-1.91-.28-3.14,0-.32-.16-.44-.34-.37-1.46.53-2.2.79-3.69,1.22-.18.06-.26.21-.23.46.14,1.29.2,2,.27,3.31,0,.43.06.77.1,1a1.11,1.11,0,0,0,.2.51.51.51,0,0,0,.38.18,4,4,0,0,0,.61-.06c.05,0,.09,0,.12.08a.39.39,0,0,1,.05.2.68.68,0,0,1-.05.23.2.2,0,0,1-.13.14,4.41,4.41,0,0,1-.95.24,7.32,7.32,0,0,0-.9.21,7.46,7.46,0,0,0-1,.37,5.77,5.77,0,0,1-.92.33.1.1,0,0,1-.12-.07.65.65,0,0,1,0-.21.85.85,0,0,1,0-.23.25.25,0,0,1,.11-.15,3.19,3.19,0,0,0,.62-.32,1,1,0,0,0,.35-.39,1.62,1.62,0,0,0,.16-.63,7.21,7.21,0,0,0,0-1c-.17-2.46-.38-4.91-.78-7.35a7.85,7.85,0,0,0-.2-.9,1.54,1.54,0,0,0-.27-.56.81.81,0,0,0-.4-.29,1.7,1.7,0,0,0-.62,0s-.08,0-.12-.07a1,1,0,0,1-.07-.18.4.4,0,0,1,0-.19.12.12,0,0,1,.09-.1l.86-.12a5.82,5.82,0,0,0,.9-.15,4.28,4.28,0,0,0,.46-.13l.41-.14.4-.14a4.56,4.56,0,0,1,.44-.14.09.09,0,0,1,.12,0,.29.29,0,0,1,.07.16.67.67,0,0,1,0,.2.13.13,0,0,1-.07.11,1.86,1.86,0,0,0-.55.3.79.79,0,0,0-.27.42,1.52,1.52,0,0,0,0,.62c0,.25.07.57.14,1,.17.93.25,1.42.38,2.41,0,.24.14.34.32.29C335.37,382.57,336.1,382.32,337.55,381.79Z" transform="translate(-251.35 -261.59)"/><path class="cls-14" d="M345.94,383.18c0,.44.05.78.08,1a1,1,0,0,0,.18.52.49.49,0,0,0,.37.18,3.87,3.87,0,0,0,.64,0c.05,0,.09,0,.12.1a.54.54,0,0,1,0,.22.7.7,0,0,1-.05.25.23.23,0,0,1-.13.14,7.73,7.73,0,0,1-1,.19,4.77,4.77,0,0,0-.91.2,6.52,6.52,0,0,0-1,.41,9.13,9.13,0,0,1-.91.4c-.05,0-.09,0-.11-.06a.32.32,0,0,1,0-.2.67.67,0,0,1,0-.24.27.27,0,0,1,.11-.17,4.84,4.84,0,0,0,.61-.37,1.21,1.21,0,0,0,.36-.42,1.69,1.69,0,0,0,.17-.62,8.71,8.71,0,0,0,0-1,34.12,34.12,0,0,0-1.69-8.06c-.15-.4-.33-.61-.5-.65a1.4,1.4,0,0,0-.76.2,2.62,2.62,0,0,0-.64.41,1,1,0,0,0-.32.52,2.46,2.46,0,0,0-.07.76c0,.3.06.68.13,1.16a.17.17,0,0,1,0,.16.28.28,0,0,1-.12.08.17.17,0,0,1-.14,0,.12.12,0,0,1-.08-.09,10.56,10.56,0,0,0-.32-1.26,10.39,10.39,0,0,0-.48-1.18.26.26,0,0,1,.06-.3,1,1,0,0,1,.32-.21c2-1,3.86-2,5.73-3.1A1,1,0,0,1,346,372a.25.25,0,0,1,.27.16c.06.13.13.32.22.52l.3.68.36.75.35.74a.3.3,0,0,1-.1.3.28.28,0,0,1-.15,0,.16.16,0,0,1-.12-.11,6.07,6.07,0,0,0-.66-1.08,1.79,1.79,0,0,0-.6-.53.89.89,0,0,0-.6-.09,2,2,0,0,0-.65.25,1.57,1.57,0,0,0-.64.54c-.1.18-.06.46.11.87A32.83,32.83,0,0,1,345.94,383.18Z" transform="translate(-251.35 -261.59)"/><path class="cls-15" d="M348.91,373.23a3.65,3.65,0,0,0,.55.91,2.25,2.25,0,0,0,.62.51,3.53,3.53,0,0,0,.67.28l.68.21a11.18,11.18,0,0,1,1.14.49,4.5,4.5,0,0,1,1.12.79,5.07,5.07,0,0,1,1,1.34,7.12,7.12,0,0,1,.66,2.14,6.2,6.2,0,0,1,0,2.24,3.82,3.82,0,0,1-.63,1.5,2.67,2.67,0,0,1-1,.85,2.94,2.94,0,0,1-1.13.31,2.29,2.29,0,0,1-.82-.11,2.54,2.54,0,0,1-.83-.47l-.12-.07a.19.19,0,0,0-.15,0,.29.29,0,0,0-.19.17,1.6,1.6,0,0,0-.19.49.38.38,0,0,1-.11.2.24.24,0,0,1-.13.05.17.17,0,0,1-.12-.05.24.24,0,0,1,0-.15c0-.33.06-.68.07-1a10.65,10.65,0,0,0,0-1.13c0-.37-.06-.74-.11-1.11s-.12-.73-.2-1.12a.33.33,0,0,1,0-.22.36.36,0,0,1,.13-.14.2.2,0,0,1,.15,0,.29.29,0,0,1,.11.16,10.51,10.51,0,0,0,.47,1.52,5.14,5.14,0,0,0,.6,1.15,2.57,2.57,0,0,0,.73.71,1.41,1.41,0,0,0,.88.19,1.4,1.4,0,0,0,.66-.24,1.78,1.78,0,0,0,.54-.58,2.78,2.78,0,0,0,.33-.91,4,4,0,0,0,0-1.21,4.48,4.48,0,0,0-.42-1.47,3.77,3.77,0,0,0-.69-1,3.37,3.37,0,0,0-.79-.6,8,8,0,0,0-.79-.38l-1-.39a3.91,3.91,0,0,1-1.75-1.38,6.65,6.65,0,0,1-.74-1.4,6.1,6.1,0,0,1-.44-1.59,3.64,3.64,0,0,1,.06-1.25,2.89,2.89,0,0,1,.45-1,3.14,3.14,0,0,1,.75-.75,1.46,1.46,0,0,1,.5-.27,2.19,2.19,0,0,1,.56-.09l.29,0a.36.36,0,0,0,.19-.07c.08-.06.1-.16.05-.32a.25.25,0,0,1,0-.17.38.38,0,0,1,.09-.09.25.25,0,0,1,.12,0,.16.16,0,0,1,.1.1c.12.27.24.53.38.79l.42.8q.29.56.54,1c.16.29.35.64.55,1.06a.17.17,0,0,1,0,.14.2.2,0,0,1-.07.12.15.15,0,0,1-.13,0c-.05,0-.09-.05-.13-.12a11.82,11.82,0,0,0-1-1.42,2.93,2.93,0,0,0-.79-.72,1,1,0,0,0-.68-.15,1.86,1.86,0,0,0-.69.3,1.33,1.33,0,0,0-.42.43,1.57,1.57,0,0,0-.21.62,2.24,2.24,0,0,0,0,.77A3.37,3.37,0,0,0,348.91,373.23Z" transform="translate(-251.35 -261.59)"/><path class="cls-16" d="M299.42,399c-.17-.43-.33-.8-.48-1.12a4.44,4.44,0,0,0-.46-.82,2.57,2.57,0,0,0-.57-.57,3.07,3.07,0,0,0-.79-.4.4.4,0,0,1-.18-.15,1,1,0,0,1-.12-.26.45.45,0,0,1,0-.22c0-.06,0-.08.1-.07.31.08.68.2,1.1.34a11.81,11.81,0,0,0,1.15.34l.58.12.53.07.51.07c.18,0,.37.06.58.1a.23.23,0,0,1,.15.14,1.14,1.14,0,0,1,.09.26.77.77,0,0,1,0,.26c0,.07,0,.11-.08.1a1.67,1.67,0,0,0-.69,0,.44.44,0,0,0-.3.34,1.79,1.79,0,0,0,.06.73,10.39,10.39,0,0,0,.36,1.2,42,42,0,0,0,3.3,6.9c.24.39.46.72.65,1s.37.5.54.7a5.38,5.38,0,0,0,.49.54,6,6,0,0,0,.51.48c.11.1.23.19.36.29l.37.27.43.25a.72.72,0,0,0,.26.1.4.4,0,0,0,.21-.06c.05,0,.07-.12.06-.25a2,2,0,0,0-.11-.52c-.07-.22-.17-.52-.31-.9,0-.08,0-.12,0-.12a.22.22,0,0,1,.13,0,.64.64,0,0,1,.17.13.47.47,0,0,1,.12.18c.19.54.37,1,.55,1.48s.4.9.64,1.37a.4.4,0,0,1,0,.13s0,0-.14,0a27.85,27.85,0,0,1-3.42-2.48c-.24-.19-.45-.37-.63-.53l-.54-.48-.17-.16-.2-.2-.14-.15s0,0,0,0l.33.25c.07.05.09,0,.07,0s-.11-.17-.25-.36l-.64-.84a41.88,41.88,0,0,1-4.19-7.44Z" transform="translate(-251.35 -261.59)"/><path class="cls-17" d="M314.79,408.58a19.87,19.87,0,0,1,.2,2.65,5.35,5.35,0,0,1-.22,1.73,1.18,1.18,0,0,1-.69.79,1.65,1.65,0,0,1-1.22-.2,5.86,5.86,0,0,1-1.37-.89,8.09,8.09,0,0,1-1.23-1.3,11.92,11.92,0,0,1-1.16-1.8,15.3,15.3,0,0,1-1.08-2.47c-.67-2.06-1.25-4.13-1.75-6.24-.11-.49-.21-.91-.32-1.27a3.44,3.44,0,0,0-.37-.9,1.8,1.8,0,0,0-.52-.6,2.17,2.17,0,0,0-.78-.36.31.31,0,0,1-.16-.16,1,1,0,0,1-.1-.29.53.53,0,0,1,0-.25c0-.08.05-.11.11-.1.32.06.7.15,1.11.27a8.65,8.65,0,0,0,1.17.26l.58.06h1.06l.58,0q.09,0,.15.15a1.24,1.24,0,0,1,.06.29.93.93,0,0,1,0,.29c0,.09-.05.13-.1.12a1.77,1.77,0,0,0-.72.12.66.66,0,0,0-.35.44,2.24,2.24,0,0,0,0,.85c0,.36.1.81.2,1.36.44,2.1.9,4.19,1.5,6.25a12.49,12.49,0,0,0,.66,1.74,10.36,10.36,0,0,0,.83,1.52,7.84,7.84,0,0,0,.94,1.19,3,3,0,0,0,1,.71c.72.3,1.18.15,1.43-.48a8.2,8.2,0,0,0,0-3.64c-.24-1.6-.35-2.43-.56-4.14,0-.26-.07-.6-.11-1l-.15-1.23c-.06-.41-.11-.81-.17-1.19a8.81,8.81,0,0,0-.18-.9,6.06,6.06,0,0,0-.23-.69,1,1,0,0,0-.23-.35.6.6,0,0,0-.31-.15,3.92,3.92,0,0,1-.46-.1c-.05,0-.09-.06-.13-.16a1.55,1.55,0,0,1-.07-.31,1.4,1.4,0,0,1,0-.29c0-.09,0-.13.11-.13a4.09,4.09,0,0,1,.78.15,3.51,3.51,0,0,0,.84.14,2.57,2.57,0,0,0,.78-.06,3.87,3.87,0,0,1,.87-.06c.06,0,.11.05.14.14a1,1,0,0,1,.07.31,1.13,1.13,0,0,1,0,.32q0,.15-.12.15l-.43.05a.33.33,0,0,0-.25.11.84.84,0,0,0-.16.33c0,.15-.08.38-.13.68a5.65,5.65,0,0,0,0,.88c0,.38,0,.77.07,1.18s.07.83.12,1.24.09.78.12,1.08C314.49,406.18,314.58,407,314.79,408.58Z" transform="translate(-251.35 -261.59)"/><path class="cls-18" d="M321.46,397.35a2.47,2.47,0,0,1,1.27.23,5.3,5.3,0,0,1,1.16.77l.32.25a.36.36,0,0,0,.25.11c.16,0,.26-.22.3-.61a.24.24,0,0,1,.09-.2.23.23,0,0,1,.16-.07.34.34,0,0,1,.15.06.24.24,0,0,1,0,.18c0,.33,0,.68-.06,1s0,.7,0,1.07c0,.56,0,1.12.08,1.66s.08,1.12.12,1.7a.3.3,0,0,1-.23.29.2.2,0,0,1-.18,0,.21.21,0,0,1-.1-.19,8.73,8.73,0,0,0-1.25-3.81,2.4,2.4,0,0,0-2.16-1.11,2.14,2.14,0,0,0-1.61.9,6.18,6.18,0,0,0-.92,2.09,13.21,13.21,0,0,0-.38,2.69,25.4,25.4,0,0,0,0,2.76,27,27,0,0,0,.31,2.85,15.44,15.44,0,0,0,.63,2.5,6.87,6.87,0,0,0,.93,1.84,1.86,1.86,0,0,0,1.3.81,2.45,2.45,0,0,0,1.06-.09,1.64,1.64,0,0,0,.84-.7,6.49,6.49,0,0,0,.76-1.69,14.25,14.25,0,0,0,.48-2.35.34.34,0,0,1,.1-.24.18.18,0,0,1,.16,0,.47.47,0,0,1,.14.14.33.33,0,0,1,0,.21c0,.36-.09.7-.12,1s-.05.68-.07,1c0,.58-.07,1.15-.1,1.73s-.06,1.17-.1,1.78a.34.34,0,0,1-.07.2.17.17,0,0,1-.12.08.14.14,0,0,1-.13-.05.38.38,0,0,1-.06-.17,1.84,1.84,0,0,0-.05-.41.91.91,0,0,0-.13-.33.28.28,0,0,0-.23-.14.52.52,0,0,0-.3.15,5,5,0,0,1-.55.45,2.21,2.21,0,0,1-.53.27,1.92,1.92,0,0,1-.54.11,4.3,4.3,0,0,1-.6,0,4.67,4.67,0,0,1-3.22-2.5,18.23,18.23,0,0,1-1.59-6.24,17.08,17.08,0,0,1,.08-4,10,10,0,0,1,.9-3.09,5.61,5.61,0,0,1,1.59-2A4,4,0,0,1,321.46,397.35Z" transform="translate(-251.35 -261.59)"/><path class="cls-19" d="M333.57,395.83a.41.41,0,0,1,.22,0c.08,0,.11.19.09.5a7.11,7.11,0,0,0,0,.82c0,.31,0,.61,0,.91,0,1,0,1.85,0,2.65a.45.45,0,0,1-.08.23.37.37,0,0,1-.15.13.18.18,0,0,1-.16,0c-.05,0-.08-.11-.08-.23,0-.8-.09-1.42-.15-1.87a3,3,0,0,0-.27-1,.59.59,0,0,0-.5-.33,3.8,3.8,0,0,0-.82.07l-.88.21c-.25.06-.46.11-.61.16a.7.7,0,0,0-.36.32,1.91,1.91,0,0,0-.17.68c0,.29,0,.7,0,1.22,0,1.75-.08,3.5-.16,5.25,0,.28,0,.44.05.5s.08.09.13.08a3.82,3.82,0,0,0,1-.29,1.32,1.32,0,0,0,.59-.53,2.47,2.47,0,0,0,.31-.87c.06-.34.13-.79.18-1.34a.7.7,0,0,1,.1-.29.27.27,0,0,1,.16-.13.15.15,0,0,1,.15.06.32.32,0,0,1,.06.26c0,.32,0,.61-.06.86s-.06.51-.08.76l-.09.77q0,.41-.09.93-.07.87-.12,1.56c0,.46-.07,1-.16,1.66a.34.34,0,0,1-.09.22.2.2,0,0,1-.15.09.2.2,0,0,1-.14-.06s-.05-.11-.05-.22c0-.53.06-1,.05-1.29a1.43,1.43,0,0,0-.16-.74.65.65,0,0,0-.52-.27,4.71,4.71,0,0,0-1,.06.27.27,0,0,0-.15.12,1.06,1.06,0,0,0-.1.42c-.11,1.48-.18,2.2-.34,3.58-.07.57-.11,1-.12,1.42a5.08,5.08,0,0,0,0,.92,1.4,1.4,0,0,0,.19.54.71.71,0,0,0,.33.27,1.38,1.38,0,0,0,.37,0,1.69,1.69,0,0,0,.44,0,2.7,2.7,0,0,0,.56-.14,1.65,1.65,0,0,0,.42-.22,4.35,4.35,0,0,0,.49-.46,2.87,2.87,0,0,0,.42-.6,6.15,6.15,0,0,0,.37-.9c.12-.35.25-.8.38-1.35a.46.46,0,0,1,.13-.24.54.54,0,0,1,.18-.1.13.13,0,0,1,.14.05s0,.11,0,.2c-.19.77-.36,1.48-.54,2.12s-.33,1.27-.48,1.9a.66.66,0,0,1-.1.22.37.37,0,0,1-.26.19,28.62,28.62,0,0,1-4.33.64c-.3,0-.61.05-.91.1s-.59.1-.82.12a.16.16,0,0,1-.14-.11.9.9,0,0,1,0-.25.69.69,0,0,1,.07-.29.28.28,0,0,1,.18-.16,1.46,1.46,0,0,0,.54-.22,1.18,1.18,0,0,0,.4-.4,2.9,2.9,0,0,0,.29-.66,6.54,6.54,0,0,0,.19-1c.39-3.56.56-7.14.63-10.72,0-.44,0-.87,0-1.3s-.05-.81-.1-1.18a4.09,4.09,0,0,0-.24-.92.9.9,0,0,0-.44-.49,1.91,1.91,0,0,0-.34-.1,1.5,1.5,0,0,0-.35,0c-.05,0-.1,0-.14-.14a1.09,1.09,0,0,1-.05-.33,2,2,0,0,1,0-.35c0-.11.07-.17.13-.18a6.48,6.48,0,0,1,.92-.08,5.94,5.94,0,0,0,.93-.11A53.26,53.26,0,0,0,333.57,395.83Z" transform="translate(-251.35 -261.59)"/><path class="cls-20" d="M336.5,398.45a3.51,3.51,0,0,0-.24-1.65.93.93,0,0,0-1-.49c-.05,0-.09,0-.11-.15a1.4,1.4,0,0,1,0-.37,2.22,2.22,0,0,1,0-.37q0-.18.12-.21l.55-.18a6.57,6.57,0,0,1,.76-.21,4,4,0,0,1,.7-.11c.21,0,.34,0,.38.14,1.64,4.14,3.11,8.41,3.35,12.9,0,.21.08.14.18-.2a60.1,60.1,0,0,0,1.7-7.4c.05-.34.11-.75.17-1.25s.13-1,.17-1.53.08-1,.1-1.46a9.34,9.34,0,0,0,0-1.07,6.07,6.07,0,0,0-.1-.74.8.8,0,0,0-.17-.37.38.38,0,0,0-.29-.09l-.43.05c-.05,0-.08,0-.1-.15a1.54,1.54,0,0,1,0-.38,2.34,2.34,0,0,1,0-.38c0-.13.06-.2.12-.22a2.79,2.79,0,0,1,.73-.18,2.93,2.93,0,0,0,.79-.19,4.11,4.11,0,0,0,.73-.36,3.53,3.53,0,0,1,.83-.39c.06,0,.1,0,.13.13a1.86,1.86,0,0,1,0,.36,2.76,2.76,0,0,1-.06.4c0,.14-.08.21-.14.23l-.41.25a.65.65,0,0,0-.26.26,1.63,1.63,0,0,0-.21.49c-.07.21-.15.52-.24.92s-.12.67-.19,1.15-.14,1-.21,1.5-.14,1.06-.21,1.57-.14,1-.21,1.34a54.36,54.36,0,0,1-3.75,12.43.51.51,0,0,1-.11.16l-.17.14-.14.06s-.05,0,0-.05c.55-4.32-.63-8.6-1.93-12.67-.06-.17-.11-.24-.15-.22s-.07.18-.09.45a69.93,69.93,0,0,1-1.61,10.78c-.16.65-.27,1.14-.32,1.47a1.92,1.92,0,0,0,0,.71.27.27,0,0,0,.23.22,1.7,1.7,0,0,0,.4,0s.06,0,0,.12a1.68,1.68,0,0,1-.06.27,2.59,2.59,0,0,1-.14.29c-.05.09-.1.15-.14.16a1.71,1.71,0,0,1-.51.1,3.28,3.28,0,0,0-.68.14,5.66,5.66,0,0,0-.79.32,3.31,3.31,0,0,1-.59.24s-.06,0-.06-.1a.93.93,0,0,1,0-.27,1,1,0,0,1,.1-.28.39.39,0,0,1,.14-.18,4.74,4.74,0,0,0,.56-.3,1.5,1.5,0,0,0,.41-.42,3.34,3.34,0,0,0,.38-.82,13.76,13.76,0,0,0,.42-1.51A78.17,78.17,0,0,0,336.5,398.45Z" transform="translate(-251.35 -261.59)"/><path class="cls-21" d="M346.62,406c-.32.56-.57,1-.74,1.27a4.15,4.15,0,0,0-.32.61c0,.11,0,.15,0,.13a1.12,1.12,0,0,0,.35-.19s0,0,0,.08l-.18.23-.23.28-.18.19a6.25,6.25,0,0,1-.61.48l-.59.43c-.23.18-.5.39-.79.64s-.55.45-.76.59c0,0,0,0,0-.06a2.05,2.05,0,0,1,.13-.25l.19-.31a1.17,1.17,0,0,1,.18-.22,6.85,6.85,0,0,0,.6-.51,5.58,5.58,0,0,0,.5-.55,9.24,9.24,0,0,0,.55-.81c.2-.33.45-.78.75-1.36a47,47,0,0,0,4-13.11c.11-.79.07-1.28-.09-1.45s-.45-.2-.88-.08a2.31,2.31,0,0,0-.89.43,2.2,2.2,0,0,0-.62.83,7.91,7.91,0,0,0-.48,1.43c-.15.58-.31,1.32-.51,2.21a.6.6,0,0,1-.13.29.32.32,0,0,1-.16.1.11.11,0,0,1-.12-.06.34.34,0,0,1,0-.21c.15-.81.27-1.65.35-2.5a19.78,19.78,0,0,0,.11-2.55.88.88,0,0,1,.23-.58,1.11,1.11,0,0,1,.45-.27,38.58,38.58,0,0,1,8-1.39.79.79,0,0,1,.46.09.38.38,0,0,1,.13.43c-.05.23-.13.54-.21.89s-.17.73-.26,1.14-.19.83-.29,1.25-.2.82-.31,1.2a.64.64,0,0,1-.13.22.44.44,0,0,1-.19.14.16.16,0,0,1-.14,0s0-.1,0-.22A11,11,0,0,0,354,393a3,3,0,0,0-.13-1.16.93.93,0,0,0-.49-.55,1.65,1.65,0,0,0-.82-.07,1.59,1.59,0,0,0-1,.45,3.11,3.11,0,0,0-.51,1.53A43.46,43.46,0,0,1,346.62,406Z" transform="translate(-251.35 -261.59)"/><path class="cls-22" d="M254.28,458.78V322.56c0-33.52,31.79-60.7,71-60.7h0c39.21,0,71,27.18,71,60.7V451.23c0,20.95-12.42,39.42-31.31,50.33" transform="translate(-251.35 -261.59)"/><text class="cls-23" transform="translate(2.18 204.63) rotate(67.66)">C</text><text class="cls-23" transform="translate(5.19 211.71) rotate(63.36)">l</text><text class="cls-23" transform="matrix(0.49, 0.87, -0.87, 0.49, 6.68, 214.68)">i</text><text class="cls-23" transform="matrix(0.54, 0.84, -0.84, 0.54, 8.36, 217.72)">c</text><text class="cls-23" transform="translate(11.26 222.25) rotate(52.51)">k</text><text class="cls-23" transform="matrix(0.66, 0.75, -0.75, 0.66, 14.98, 227)"> </text><text class="cls-24" transform="matrix(0.71, 0.71, -0.71, 0.71, 16.67, 229.04)">h</text><text class="cls-24" transform="matrix(0.77, 0.64, -0.64, 0.77, 21.48, 233.77)">e</text><text class="cls-24" transform="matrix(0.82, 0.57, -0.57, 0.82, 25.78, 237.28)">r</text><text class="cls-24" transform="matrix(0.86, 0.51, -0.51, 0.86, 29.63, 239.98)">e</text><text class="cls-24" transform="translate(34.4 242.72) rotate(26.91)"> </text><text class="cls-23" transform="matrix(0.91, 0.41, -0.41, 0.91, 36.66, 243.87)">t</text><text class="cls-23" transform="translate(40 245.42) rotate(20.27)">o</text><text class="cls-23" transform="translate(45.8 247.5) rotate(16.83)"> </text><text class="cls-23" transform="translate(48.2 248.23) rotate(14.63)">l</text><text class="cls-23" transform="translate(51.5 249.11) rotate(11.43)">e</text><text class="cls-23" transform="matrix(0.99, 0.14, -0.14, 0.99, 56.89, 250.19)">a</text><text class="cls-23" transform="translate(62.19 250.9) rotate(4.64)">r</text><text class="cls-23" transform="translate(66.83 251.3) rotate(1.38)">n</text><text class="cls-23" transform="translate(73.54 251.41) rotate(-1.06)"> </text><text class="cls-23" transform="translate(76.11 251.46) rotate(-4.13)">m</text><text class="cls-23" transform="matrix(0.99, -0.13, 0.13, 0.99, 86.26, 250.65)">o</text><text class="cls-23" transform="translate(92.27 249.83) rotate(-9.7)">r</text><text class="cls-23" transform="matrix(0.98, -0.2, 0.2, 0.98, 96.71, 249.07)">e</text><text class="cls-25" transform="translate(19.99 188.4)">which can be used across all <tspan x="4.82" y="10.8">mediums and ma</tspan><tspan class="cls-26" x="70.71" y="10.8">t</tspan><tspan x="73.66" y="10.8">erials </tspan><tspan class="cls-27" x="96.99" y="10.8">t</tspan><tspan x="99.94" y="10.8">o </tspan><tspan class="cls-28" x="12.66" y="21.6">k</tspan><tspan class="cls-26" x="16.86" y="21.6">e</tspan><tspan x="21.33" y="21.6">ep logos </tspan><tspan class="cls-29" x="56.48" y="21.6">c</tspan><tspan x="60.33" y="21.6">onsistan</tspan><tspan class="cls-30" x="92.51" y="21.6">t</tspan><tspan class="cls-31" x="95.7" y="21.6">.</tspan></text><text class="cls-32" transform="translate(66.72 22.38)">Best <tspan x="-30.73" y="10.8">practi</tspan><tspan class="cls-33" x="-8.79" y="10.8">c</tspan><tspan x="-5.05" y="10.8">es </tspan><tspan class="cls-34" x="5.6" y="10.8">f</tspan><tspan x="8.44" y="10.8">or</tspan><tspan class="cls-35" x="16.44" y="10.8"> </tspan><tspan x="18.6" y="10.8">Graphi</tspan><tspan class="cls-36" x="43.89" y="10.8">c</tspan><tspan x="47.57" y="10.8"> </tspan><tspan x="-22.75" y="21.6">design: </tspan><tspan class="cls-37" x="7.32" y="21.6">c</tspan><tspan class="cls-38" x="11.17" y="21.6">onsider</tspan><tspan class="cls-38"><tspan x="-26.58" y="32.4">creating a spacing </tspan><tspan x="-33.45" y="43.2">measurment standard </tspan></tspan></text><g class="cls-39"><polyline class="cls-40" points="45.8 93.79 45.8 92.8 46.79 92.8"/><line class="cls-41" x1="48.72" y1="92.8" x2="101.81" y2="92.8"/><polyline class="cls-40" points="102.78 92.8 103.77 92.8 103.77 93.79"/><line class="cls-42" x1="103.77" y1="95.72" x2="103.77" y2="152.4"/><polyline class="cls-40" points="103.77 153.36 103.77 154.35 102.78 154.35"/><line class="cls-41" x1="100.85" y1="154.35" x2="47.76" y2="154.35"/><polyline class="cls-40" points="46.79 154.35 45.8 154.35 45.8 153.36"/><line class="cls-42" x1="45.8" y1="151.44" x2="45.8" y2="94.76"/></g><g class="cls-39"><polyline class="cls-43" points="33.97 81.63 33.97 80.24 35.36 80.24"/><line class="cls-44" x1="38.08" y1="80.24" x2="112.85" y2="80.24"/><polyline class="cls-43" points="114.21 80.24 115.61 80.24 115.61 81.63"/><line class="cls-45" x1="115.61" y1="84.34" x2="115.61" y2="164.16"/><polyline class="cls-43" points="115.61 165.52 115.61 166.91 114.21 166.91"/><line class="cls-44" x1="111.49" y1="166.91" x2="36.72" y2="166.91"/><polyline class="cls-43" points="35.36 166.91 33.97 166.91 33.97 165.52"/><line class="cls-45" x1="33.96" y1="162.81" x2="33.96" y2="82.99"/></g><line class="cls-43" x1="48.85" y1="80.54" x2="48.85" y2="92.55"/><rect class="cls-46" x="47.22" y="80.29" width="3.25" height="0.5"/><rect class="cls-46" x="47.22" y="92.3" width="3.25" height="0.5"/><line class="cls-43" x1="46.23" y1="98.05" x2="34.21" y2="98.05"/><rect class="cls-46" x="45.98" y="96.43" width="0.5" height="3.25"/><rect class="cls-46" x="33.96" y="96.43" width="0.5" height="3.25"/></svg>