<svg id="Layer_1" data-name="Layer 1" xmlns="http://www.w3.org/2000/svg" xmlns:xlink="http://www.w3.org/1999/xlink" viewBox="0 0 83.23 83.23"><defs><style>.cls-1{fill:#f1f2f2;opacity:0.54;}.cls-2{fill:url(#New_Gradient_Swatch_2);}.cls-3{fill:url(#New_Gradient_Swatch_2-2);}.cls-4{fill:url(#New_Gradient_Swatch_2-3);}.cls-5{fill:url(#New_Gradient_Swatch_2-4);}.cls-6{fill:url(#New_Gradient_Swatch_2-5);}.cls-7{fill:url(#New_Gradient_Swatch_2-6);}.cls-8{fill:url(#New_Gradient_Swatch_2-7);}.cls-9{fill:url(#New_Gradient_Swatch_2-8);}.cls-10{fill:url(#New_Gradient_Swatch_2-9);}.cls-11{fill:url(#New_Gradient_Swatch_2-10);}.cls-12{fill:url(#New_Gradient_Swatch_2-11);}.cls-13{fill:url(#New_Gradient_Swatch_2-12);}.cls-14{fill:url(#New_Gradient_Swatch_2-13);}.cls-15{fill:url(#New_Gradient_Swatch_2-14);}.cls-16{fill:url(#New_Gradient_Swatch_2-15);}.cls-17{fill:url(#New_Gradient_Swatch_2-16);}.cls-18{fill:url(#New_Gradient_Swatch_2-17);}.cls-19{fill:url(#New_Gradient_Swatch_2-18);}.cls-20{fill:url(#New_Gradient_Swatch_2-19);}.cls-21{fill:url(#New_Gradient_Swatch_2-20);}</style><radialGradient id="New_Gradient_Swatch_2" cx="-20.75" cy="36.58" r="6.22" gradientTransform="translate(5.59 -11.83) rotate(2.83)" gradientUnits="userSpaceOnUse"><stop offset="0.6" stop-color="#fdb93f"/><stop offset="0.98" stop-color="#e699c2"/></radialGradient><radialGradient id="New_Gradient_Swatch_2-2" cx="-10.11" cy="34.61" r="8.38" xlink:href="#New_Gradient_Swatch_2"/><radialGradient id="New_Gradient_Swatch_2-3" cx="0.71" cy="34.8" r="9.91" xlink:href="#New_Gradient_Swatch_2"/><radialGradient id="New_Gradient_Swatch_2-4" cx="10.34" cy="34.69" r="9.91" xlink:href="#New_Gradient_Swatch_2"/><radialGradient id="New_Gradient_Swatch_2-5" cx="19.87" cy="33.86" r="9.62" xlink:href="#New_Gradient_Swatch_2"/><radialGradient id="New_Gradient_Swatch_2-6" cx="29.17" cy="31.9" r="6.56" xlink:href="#New_Gradient_Swatch_2"/><radialGradient id="New_Gradient_Swatch_2-7" cx="-26.19" cy="59.04" r="7.95" xlink:href="#New_Gradient_Swatch_2"/><radialGradient id="New_Gradient_Swatch_2-8" cx="-17.05" cy="59.73" r="9.16" xlink:href="#New_Gradient_Swatch_2"/><radialGradient id="New_Gradient_Swatch_2-9" cx="-6.63" cy="61.06" r="7.79" xlink:href="#New_Gradient_Swatch_2"/><radialGradient id="New_Gradient_Swatch_2-10" cx="0.82" cy="61.46" r="7.08" xlink:href="#New_Gradient_Swatch_2"/><radialGradient id="New_Gradient_Swatch_2-11" cx="9.79" cy="60.78" r="7.31" xlink:href="#New_Gradient_Swatch_2"/><radialGradient id="New_Gradient_Swatch_2-12" cx="21.15" cy="57.57" r="8.65" xlink:href="#New_Gradient_Swatch_2"/><radialGradient id="New_Gradient_Swatch_2-13" cx="30.83" cy="51.97" r="7.63" xlink:href="#New_Gradient_Swatch_2"/><radialGradient id="New_Gradient_Swatch_2-14" cx="40.72" cy="48.38" r="8.21" xlink:href="#New_Gradient_Swatch_2"/><radialGradient id="New_Gradient_Swatch_2-15" cx="-18.45" cy="85.02" r="9.1" xlink:href="#New_Gradient_Swatch_2"/><radialGradient id="New_Gradient_Swatch_2-16" cx="-10.29" cy="87.1" r="8.97" xlink:href="#New_Gradient_Swatch_2"/><radialGradient id="New_Gradient_Swatch_2-17" cx="4.39" cy="87.93" r="9.22" xlink:href="#New_Gradient_Swatch_2"/><radialGradient id="New_Gradient_Swatch_2-18" cx="15.24" cy="86.48" r="9.86" xlink:href="#New_Gradient_Swatch_2"/><radialGradient id="New_Gradient_Swatch_2-19" cx="27.03" cy="82.47" r="12.01" xlink:href="#New_Gradient_Swatch_2"/><radialGradient id="New_Gradient_Swatch_2-20" cx="39.09" cy="77.94" r="10.95" xlink:href="#New_Gradient_Swatch_2"/></defs><title>lucent-wave-logo</title><circle class="cls-1" cx="11.24" cy="49.43" r="41.62" transform="translate(-8.31 50.4) rotate(-87.17)"/><path class="cls-2" d="M-15.37,20.94l.62-.8a4.35,4.35,0,0,0,.31-.45c0-.09,0-.12,0-.1a2.28,2.28,0,0,0-.39.26s0,0,0,0l.13-.13.19-.17.16-.14c.21-.18.44-.37.69-.57l.76-.58.43-.33.4-.31.4-.3.43-.31s.06,0,0,0a1.12,1.12,0,0,1-.1.18l-.16.23a.7.7,0,0,1-.15.15,7.62,7.62,0,0,0-.65.5,6.32,6.32,0,0,0-.55.54,8.58,8.58,0,0,0-.56.68c-.19.26-.42.58-.67,1a47.07,47.07,0,0,0-3.45,6.34,9.23,9.23,0,0,0-.41,1,2.09,2.09,0,0,0-.11.71.68.68,0,0,0,.19.46,1.54,1.54,0,0,0,.48.32,2.69,2.69,0,0,0,.49.13l.59.09a6.87,6.87,0,0,0,.75,0,1.88,1.88,0,0,0,.56-.07,3.54,3.54,0,0,0,.65-.27,1.79,1.79,0,0,0,.52-.44,3.69,3.69,0,0,0,.45-.74,11.47,11.47,0,0,0,.46-1.16.29.29,0,0,1,.16-.18.48.48,0,0,1,.21,0,.24.24,0,0,1,.17.08.19.19,0,0,1,0,.2q-.32,1-.58,1.89a17.16,17.16,0,0,0-.43,1.83.54.54,0,0,1-.11.2c-.06.08-.18.1-.34.07A47.72,47.72,0,0,0-19.92,30a11.28,11.28,0,0,0-1.31,0l-1.27.14c-.08,0-.13,0-.13-.08a.3.3,0,0,1,0-.19.8.8,0,0,1,.17-.21.52.52,0,0,1,.24-.13c.37-.08.68-.15.92-.22a1.91,1.91,0,0,0,.61-.29,2,2,0,0,0,.48-.53c.15-.23.32-.55.53-.95A48.65,48.65,0,0,1-15.38,21Z" transform="translate(30.38 -7.82)"/><path class="cls-3" d="M-3.16,24.9a31.46,31.46,0,0,1-.52,3.73,9.4,9.4,0,0,1-.92,2.66,3,3,0,0,1-1.45,1.38,3.11,3.11,0,0,1-2.08,0,5.93,5.93,0,0,1-2-1,4,4,0,0,1-1.21-1.55,5.32,5.32,0,0,1-.41-2.18A12.38,12.38,0,0,1-11.29,25q.83-3.33,1.93-6.58.24-.7.37-1.17a2.78,2.78,0,0,0,.13-.72c0-.17-.05-.27-.15-.3a.77.77,0,0,0-.49.1s-.06,0-.05-.05a.89.89,0,0,1,.07-.21,1.78,1.78,0,0,1,.14-.24.53.53,0,0,1,.15-.16,6.62,6.62,0,0,1,.8-.41c.29-.13.58-.26.86-.4l.47-.26.44-.27.44-.26.47-.24s.07,0,.07.08a1.07,1.07,0,0,1-.05.26,2.19,2.19,0,0,1-.12.31c0,.1-.09.16-.13.18a3.16,3.16,0,0,0-.67.46,2.73,2.73,0,0,0-.5.63,5.39,5.39,0,0,0-.41.91c-.13.36-.27.81-.43,1.36q-1,3.4-1.66,6.86A11.15,11.15,0,0,0-9.87,27a6.65,6.65,0,0,0,.23,1.87,4.12,4.12,0,0,0,.72,1.46,2.28,2.28,0,0,0,1.23.81,2.1,2.1,0,0,0,2.52-1.07c.91-1.51,1-3.5,1.26-5.22.21-2.12.33-3.17.59-5.23,0-.32.09-.72.15-1.18S-3,17.49-3,17s.11-.91.16-1.33.07-.74.07-1a5.44,5.44,0,0,0,0-.71.55.55,0,0,0-.11-.31.23.23,0,0,0-.23,0l-.37.06s-.06,0-.06-.12a1.52,1.52,0,0,1,0-.31A2.23,2.23,0,0,1-3.43,13q.05-.15.13-.18a2.09,2.09,0,0,1,.61-.14A2.69,2.69,0,0,0-2,12.52a3.33,3.33,0,0,0,.67-.32,3.24,3.24,0,0,1,.75-.34q.08,0,.09.12a1.3,1.3,0,0,1,0,.33,1.93,1.93,0,0,1-.08.37q-.06.18-.14.2l-.38.18a.55.55,0,0,0-.24.2,1.88,1.88,0,0,0-.21.42c-.07.18-.16.46-.27.81a9.68,9.68,0,0,0-.24,1q-.12.64-.23,1.37t-.19,1.46l-.15,1.3C-2.86,21.72-3,22.77-3.16,24.9Z" transform="translate(30.38 -7.82)"/><path class="cls-4" d="M5.14,10a1.52,1.52,0,0,1,1.11.23,4.63,4.63,0,0,1,1,.93l.28.32c.09.1.16.15.23.15s.25-.25.3-.71a.36.36,0,0,1,.09-.22.17.17,0,0,1,.15-.06.21.21,0,0,1,.13.08.3.3,0,0,1,0,.22q-.06.58-.08,1.21c0,.41,0,.84,0,1.28q0,1,.06,2.06l.13,2.15a.42.42,0,0,1-.06.24.27.27,0,0,1-.16.12.21.21,0,0,1-.19-.05.36.36,0,0,1-.1-.26,14.93,14.93,0,0,0-1.14-4.81c-.51-1-1.14-1.42-1.91-1.32a2.19,2.19,0,0,0-1.53,1.19,10.76,10.76,0,0,0-1.09,2.62,24,24,0,0,0-.7,3.42c-.17,1.24-.28,2.45-.34,3.64a37,37,0,0,0,0,4,21.73,21.73,0,0,0,.53,3.73A10.16,10.16,0,0,0,3,33a2.49,2.49,0,0,0,1.76,1.34,2.63,2.63,0,0,0,1.42-.17,2.16,2.16,0,0,0,1-1.15A11,11,0,0,0,8,30.37a28.44,28.44,0,0,0,.35-3.53.51.51,0,0,1,.1-.35.14.14,0,0,1,.18,0,.53.53,0,0,1,.18.21.55.55,0,0,1,.07.31q0,.77,0,1.53t0,1.53q0,1.32.13,2.72t.18,2.94a.73.73,0,0,1-.05.36.23.23,0,0,1-.15.13.19.19,0,0,1-.18-.08.56.56,0,0,1-.11-.3,4.78,4.78,0,0,0-.14-.7,2.13,2.13,0,0,0-.23-.56A.41.41,0,0,0,8,34.33c-.11,0-.23.08-.37.26a6.23,6.23,0,0,1-.68.76,2.63,2.63,0,0,1-.68.47,2.12,2.12,0,0,1-.73.19,3.7,3.7,0,0,1-.84,0c-2.14-.33-3.62-2.17-4.34-4.09a22.63,22.63,0,0,1-.94-9,27.62,27.62,0,0,1,.78-5.21A21.45,21.45,0,0,1,1.5,13.75a9.74,9.74,0,0,1,1.69-2.62A3.49,3.49,0,0,1,5.14,10Z" transform="translate(30.38 -7.82)"/><path class="cls-5" d="M16.34,10.61a.45.45,0,0,1,.22.1c.07.06.11.24.12.56s0,.54,0,.86l.07,1q.12,1.57.27,2.95a.35.35,0,0,1,0,.23.21.21,0,0,1-.14.1.2.2,0,0,1-.17-.06.47.47,0,0,1-.11-.29q-.2-1.39-.35-2.17a5.22,5.22,0,0,0-.35-1.2,1.06,1.06,0,0,0-.51-.55,3.18,3.18,0,0,0-.79-.2l-.84,0a3.41,3.41,0,0,0-.58,0,.43.43,0,0,0-.33.26,1.93,1.93,0,0,0-.14.74q0,.51,0,1.43.13,3.25.27,6.5a1.7,1.7,0,0,0,.11.66q.08.13.16.13a3.21,3.21,0,0,0,1.09-.18,1,1,0,0,0,.57-.56,2.8,2.8,0,0,0,.21-1q0-.63,0-1.61a.65.65,0,0,1,.07-.33.19.19,0,0,1,.15-.11.22.22,0,0,1,.17.11.62.62,0,0,1,.09.33q0,.58.05,1l0,.91q0,.46,0,1t.06,1.16q.07,1.11.18,2c.07.61.14,1.34.2,2.21a.44.44,0,0,1-.06.29.18.18,0,0,1-.17.09.3.3,0,0,1-.18-.1.56.56,0,0,1-.11-.31q-.12-1.09-.23-1.75a2.66,2.66,0,0,0-.34-1,1.09,1.09,0,0,0-.64-.46,3.85,3.85,0,0,0-1.12-.09c-.05,0-.1,0-.15.14a1.26,1.26,0,0,0-.05.55c.09,2,.14,3,.25,5q.06,1.23.19,2.1a8.57,8.57,0,0,0,.3,1.42,3,3,0,0,0,.41.86,1.24,1.24,0,0,0,.53.43,1.8,1.8,0,0,0,.52.11,2.78,2.78,0,0,0,.6,0,3.24,3.24,0,0,0,.72-.19,1.32,1.32,0,0,0,.5-.31,4,4,0,0,0,.51-.66,2.91,2.91,0,0,0,.33-.86,7.55,7.55,0,0,0,.16-1.25q0-.74,0-1.85a.42.42,0,0,1,.08-.31.34.34,0,0,1,.2-.1.23.23,0,0,1,.2.08.39.39,0,0,1,.1.28q.06,1.54.11,2.9T19,34.27a1.23,1.23,0,0,1,0,.33.34.34,0,0,1-.29.27,38.41,38.41,0,0,1-5.93.89q-.63,0-1.23.15c-.4.07-.78.16-1.08.19-.08,0-.16-.06-.21-.18a1.57,1.57,0,0,1-.1-.43,1.32,1.32,0,0,1,0-.48.33.33,0,0,1,.2-.26,1.87,1.87,0,0,0,.66-.35,1.54,1.54,0,0,0,.43-.65,4.07,4.07,0,0,0,.22-1.05,11.92,11.92,0,0,0,0-1.61q-.32-7.34-.54-14.69,0-.82-.06-1.59T11,13.37a6.13,6.13,0,0,0-.25-1.14,1.25,1.25,0,0,0-.42-.65,1.74,1.74,0,0,0-.33-.18,1.28,1.28,0,0,0-.33-.1s-.1-.06-.13-.18a1.76,1.76,0,0,1,0-.4,1.8,1.8,0,0,1,0-.4c0-.12.07-.18.12-.19a4.1,4.1,0,0,1,.85.05,5.39,5.39,0,0,0,.89.07A33.92,33.92,0,0,1,16.34,10.61Z" transform="translate(30.38 -7.82)"/><path class="cls-6" d="M19.5,14.68A5.56,5.56,0,0,0,19,12.86a1.91,1.91,0,0,0-1.05-1s-.08-.07-.12-.2a2.39,2.39,0,0,1-.07-.4,1.85,1.85,0,0,1,0-.37q0-.16.1-.15l.51.09a5.21,5.21,0,0,1,.71.19,4.43,4.43,0,0,1,.66.28.78.78,0,0,1,.37.33,83.73,83.73,0,0,0,7.92,14.51c.16.21.21.15.15-.19q-.67-3.36-1.4-6.72l-.23-1q-.14-.64-.29-1.27T26,15.74q-.14-.56-.27-.89c-.1-.28-.19-.49-.27-.66a1.69,1.69,0,0,0-.25-.4,1.08,1.08,0,0,0-.3-.24l-.41-.21s-.08-.07-.13-.18a2,2,0,0,1-.1-.33,1.7,1.7,0,0,1,0-.29c0-.09,0-.12.07-.1a4.11,4.11,0,0,1,.66.31,5.13,5.13,0,0,0,.7.34,3.42,3.42,0,0,0,.61.18,3.15,3.15,0,0,1,.68.22.35.35,0,0,1,.14.16,1.44,1.44,0,0,1,.11.27.94.94,0,0,1,0,.25q0,.11-.07.09l-.33-.06a.2.2,0,0,0-.19,0,.42.42,0,0,0-.09.25,4.31,4.31,0,0,0,0,.59,6.85,6.85,0,0,0,.1.81q.09.53.22,1.14t.27,1.24l.25,1.09q1.33,5.83,2.51,11.69a.23.23,0,0,1-.06.18.67.67,0,0,1-.18.17.69.69,0,0,1-.22.09.14.14,0,0,1-.16,0A80.26,80.26,0,0,1,20.6,16.78c-.1-.2-.16-.3-.2-.29s0,.16,0,.44q.71,6.17,1.4,12.34a16.4,16.4,0,0,0,.3,1.93,2.62,2.62,0,0,0,.38,1,.78.78,0,0,0,.5.32,3.77,3.77,0,0,0,.66,0c.07,0,.12.06.17.16a1.11,1.11,0,0,1,.09.36,1.74,1.74,0,0,1,0,.39c0,.12-.06.2-.12.22a2.68,2.68,0,0,1-.78.14,4.07,4.07,0,0,0-1,.19,5.28,5.28,0,0,0-1.07.43,3.46,3.46,0,0,1-.78.34c-.05,0-.1,0-.15-.15a1.71,1.71,0,0,1-.09-.39,1.44,1.44,0,0,1,0-.41.35.35,0,0,1,.12-.25,5,5,0,0,0,.67-.41,1.17,1.17,0,0,0,.4-.58,3.53,3.53,0,0,0,.13-1.11q0-.73-.14-2Q20.29,22,19.5,14.68Z" transform="translate(30.38 -7.82)"/><path class="cls-7" d="M36.3,24.59a7.93,7.93,0,0,0,.43.84.85.85,0,0,0,.4.37.82.82,0,0,0,.52,0,4.82,4.82,0,0,0,.77-.32.21.21,0,0,1,.18,0,.32.32,0,0,1,.17.33.23.23,0,0,1-.11.17,9.27,9.27,0,0,1-1.11.65c-.36.18-.72.37-1.06.59a13,13,0,0,0-1.1.77,9.81,9.81,0,0,1-1,.72.12.12,0,0,1-.16,0,.56.56,0,0,1-.12-.22.82.82,0,0,1,0-.28.28.28,0,0,1,.09-.21,5.32,5.32,0,0,0,.67-.55,1.21,1.21,0,0,0,.32-.52,1.38,1.38,0,0,0,0-.66,7.53,7.53,0,0,0-.32-1c-1-2.77-2.17-5.52-3.43-8.2a2.88,2.88,0,0,0-.6-.91,3,3,0,0,0-.81-.5,1.93,1.93,0,0,0-.68-.2.31.31,0,0,0-.33.24,1.89,1.89,0,0,0,0,.76c0,.35.12.81.24,1.41,0,.09,0,.15,0,.17A.16.16,0,0,1,29,18a.37.37,0,0,1-.15-.1.4.4,0,0,1-.11-.17c-.13-.57-.29-1.15-.46-1.73s-.37-1.17-.59-1.76c-.05-.17,0-.26.06-.26a.67.67,0,0,1,.34.08,38.92,38.92,0,0,1,6,3.51l.37.27.28.22.27.23.38.33.45.39.46.39s0,0,0,.05a.11.11,0,0,1-.09,0l-.15,0a.56.56,0,0,1-.15-.1l-.82-.72L34.42,18c-.22-.17-.43-.32-.64-.46s-.44-.28-.68-.41a1.46,1.46,0,0,0-.64-.25c-.09,0,0,.22.18.59C34,19.81,35.16,22.19,36.3,24.59Z" transform="translate(30.38 -7.82)"/><path class="cls-8" d="M-24.54,39.67c.13-.62.24-1.14.31-1.57a4,4,0,0,0,.07-1,.85.85,0,0,0-.26-.59,1,1,0,0,0-.69-.19c-.06,0-.09,0-.09-.14a1.08,1.08,0,0,1,.06-.31,1.39,1.39,0,0,1,.15-.31q.09-.15.19-.16a6.08,6.08,0,0,1,1.1,0c.41,0,.8,0,1.17,0l.63,0,.58-.07.57-.06a5.07,5.07,0,0,1,.62,0c.06,0,.09.05.09.15a1.16,1.16,0,0,1-.06.33,1.84,1.84,0,0,1-.15.34q-.09.16-.17.16a2.17,2.17,0,0,0-.86.23,1.72,1.72,0,0,0-.62.59A4.24,4.24,0,0,0-22.36,38a17.19,17.19,0,0,0-.42,1.7,59.75,59.75,0,0,0-.89,12.49,12.47,12.47,0,0,0,.18,1.65,3,3,0,0,0,.32.95,1.58,1.58,0,0,0,.53.55,4.82,4.82,0,0,0,.83.39.44.44,0,0,1,.18.24,1.44,1.44,0,0,1,.1.38.94.94,0,0,1,0,.34c0,.1-.07.14-.15.12A7,7,0,0,1-23,56.42,7.27,7.27,0,0,0-24.15,56a7.59,7.59,0,0,0-1.25-.17,6.23,6.23,0,0,1-1.17-.17q-.1,0-.17-.18a1.28,1.28,0,0,1-.1-.34,1,1,0,0,1,0-.33c0-.1.06-.15.12-.16a2.76,2.76,0,0,0,.77,0,.62.62,0,0,0,.42-.34,2,2,0,0,0,.14-.83c0-.37,0-.9-.07-1.59A54.35,54.35,0,0,1-24.54,39.67Z" transform="translate(30.38 -7.82)"/><path class="cls-9" d="M-18.32,38.76a3.85,3.85,0,0,0,0-1.69,1.22,1.22,0,0,0-.93-.88q-.08,0-.07-.17a1.49,1.49,0,0,1,.05-.35,1.48,1.48,0,0,1,.13-.33c.05-.1.11-.14.17-.14l.59.05a5.82,5.82,0,0,1,.8.13,4,4,0,0,1,.71.24c.21.09.32.2.34.3a89,89,0,0,0,5,16.44q.21.45.19-.14c0-2.65,0-5.28.22-7.92,0-.34.06-.74.11-1.22l.14-1.47q.07-.72.13-1.37a9.28,9.28,0,0,0,.06-1,7.27,7.27,0,0,0,0-.74,1.07,1.07,0,0,0-.14-.44.73.73,0,0,0-.29-.26l-.44-.22q-.08,0-.08-.19a1.53,1.53,0,0,1,0-.35,1.58,1.58,0,0,1,.09-.32c0-.09.09-.13.15-.12a3.83,3.83,0,0,1,.75.29,4.43,4.43,0,0,0,.81.32,3.67,3.67,0,0,0,.78.13,3.89,3.89,0,0,1,.87.16c.06,0,.1.08.11.18a1.12,1.12,0,0,1,0,.33,1.16,1.16,0,0,1-.1.32c0,.1-.1.14-.16.12l-.44,0a.45.45,0,0,0-.29.07.9.9,0,0,0-.26.31,5.21,5.21,0,0,0-.31.7,6.65,6.65,0,0,0-.26,1q-.13.62-.23,1.35t-.17,1.47c0,.5-.08.93-.11,1.31a97.48,97.48,0,0,0,.19,13.94.15.15,0,0,1-.07.15.39.39,0,0,1-.21.06.63.63,0,0,1-.24,0,.26.26,0,0,1-.16-.14,97.64,97.64,0,0,1-6.76-17.73c-.06-.2-.1-.3-.15-.3s-.09.14-.13.42a74.64,74.64,0,0,0-.63,12,12.25,12.25,0,0,0,.2,1.86,3.12,3.12,0,0,0,.36,1,1.42,1.42,0,0,0,.51.5,6.51,6.51,0,0,0,.68.32.38.38,0,0,1,.17.22,1.22,1.22,0,0,1,.08.36,1.33,1.33,0,0,1,0,.35c0,.1-.06.15-.13.14a3.63,3.63,0,0,1-.81-.24,4.92,4.92,0,0,0-1-.29,5,5,0,0,0-1.09-.09,3.37,3.37,0,0,1-.79,0c-.05,0-.1-.07-.15-.19a1.64,1.64,0,0,1-.1-.36,1,1,0,0,1,0-.35c0-.1.06-.16.13-.17a4,4,0,0,0,.69-.08.61.61,0,0,0,.42-.34,2.35,2.35,0,0,0,.17-.92c0-.43,0-1,0-1.83A69.57,69.57,0,0,1-18.32,38.76Z" transform="translate(30.38 -7.82)"/><path class="cls-10" d="M-6,42.1a4.77,4.77,0,0,0,.08,1.52,4,4,0,0,0,.44,1.12,4.88,4.88,0,0,0,.65.85l.71.73q.59.63,1.19,1.31a9.72,9.72,0,0,1,1.09,1.5A8.65,8.65,0,0,1-1,51.07a11.06,11.06,0,0,1,.4,2.63,8.28,8.28,0,0,1-.21,2.56,4.77,4.77,0,0,1-.8,1.7,3,3,0,0,1-1.2.95,3.31,3.31,0,0,1-1.39.27,2.72,2.72,0,0,1-1.06-.3A3.76,3.76,0,0,1-6.35,58l-.17-.13a.33.33,0,0,0-.19-.07q-.12,0-.23.17a1.62,1.62,0,0,0-.17.64.38.38,0,0,1-.11.24.19.19,0,0,1-.17,0,.27.27,0,0,1-.16-.12.46.46,0,0,1-.08-.22q0-.68,0-1.48t-.07-1.62q0-.82-.11-1.65T-8,52.09a.46.46,0,0,1,.06-.31.23.23,0,0,1,.18-.12.26.26,0,0,1,.19.09.46.46,0,0,1,.11.28A13.12,13.12,0,0,0-7,54.43a8.19,8.19,0,0,0,.76,1.84,4.24,4.24,0,0,0,1,1.19,1.91,1.91,0,0,0,1.13.45,1.57,1.57,0,0,0,.83-.2,1.92,1.92,0,0,0,.67-.64,3.13,3.13,0,0,0,.42-1,5.34,5.34,0,0,0,.1-1.46,7,7,0,0,0-.34-1.91,7.23,7.23,0,0,0-.67-1.47A7.24,7.24,0,0,0-4,50.07c-.31-.33-.6-.64-.87-.92S-5.55,48.43-5.9,48a6.13,6.13,0,0,1-.92-1.34,6.67,6.67,0,0,1-.6-1.77,8.67,8.67,0,0,1-.08-2.42A6.81,6.81,0,0,1-7,40.24,3.43,3.43,0,0,1-6,39a2.32,2.32,0,0,1,1.19-.49,3.33,3.33,0,0,1,1.29.13,2.79,2.79,0,0,1,.69.3,4.5,4.5,0,0,1,.62.49l.31.26a.64.64,0,0,0,.24.13c.12,0,.21,0,.28-.19a.17.17,0,0,1,.12-.11.26.26,0,0,1,.16,0,.35.35,0,0,1,.13.1.18.18,0,0,1,0,.17,7.31,7.31,0,0,0-.17.91q-.06.47-.09,1c0,.46,0,.89,0,1.27s0,.85,0,1.38a.19.19,0,0,1-.07.14.22.22,0,0,1-.15.06.25.25,0,0,1-.16-.07.3.3,0,0,1-.09-.21c-.08-.83-.15-1.52-.25-2.06a5,5,0,0,0-.38-1.31,1.94,1.94,0,0,0-.61-.76,2.87,2.87,0,0,0-.91-.41,1.45,1.45,0,0,0-.73,0,1.39,1.39,0,0,0-.66.38,2.4,2.4,0,0,0-.51.81A4.31,4.31,0,0,0-6,42.1Z" transform="translate(30.38 -7.82)"/><path class="cls-11" d="M2.09,44.18c0-.54,0-1,0-1.38a3.48,3.48,0,0,0-.19-1,1.55,1.55,0,0,0-.42-.63,2.07,2.07,0,0,0-.74-.4q-.09,0-.13-.17a1,1,0,0,1,0-.3.74.74,0,0,1,.06-.27C.65,40,.7,40,.76,40c.32.07.69.18,1.1.32a8.65,8.65,0,0,0,1.16.3l.6.08.55,0,.54,0,.6.06q.09,0,.13.13a.73.73,0,0,1,0,.26.89.89,0,0,1-.05.26q0,.12-.12.12a2,2,0,0,0-.77.11.86.86,0,0,0-.45.43,2.37,2.37,0,0,0-.21.85c0,.36,0,.83,0,1.4q.06,5.31.37,10.61a11.48,11.48,0,0,0,.16,1.43,2,2,0,0,0,.29.78,1,1,0,0,0,.51.37,3.82,3.82,0,0,0,.82.15.26.26,0,0,1,.17.16.86.86,0,0,1,.08.31.77.77,0,0,1,0,.3.19.19,0,0,1-.16.15,6.37,6.37,0,0,1-1.26,0,7.25,7.25,0,0,0-1.2,0,8.38,8.38,0,0,0-1.28.18,6.7,6.7,0,0,1-1.2.16q-.1,0-.16-.14a1,1,0,0,1-.08-.32,1.08,1.08,0,0,1,0-.33Q.9,58,1,58a3.55,3.55,0,0,0,.8-.23.94.94,0,0,0,.45-.43,2,2,0,0,0,.17-.81c0-.35,0-.84,0-1.46C2.19,51.41,2.09,47.81,2.09,44.18Z" transform="translate(30.38 -7.82)"/><path class="cls-12" d="M17.21,54.62a.34.34,0,0,1-.07.27q-.39.58-.76,1.06a4.72,4.72,0,0,1-.85.86,4.94,4.94,0,0,1-1.12.65,7.43,7.43,0,0,1-1.57.44,4,4,0,0,1-2.39-.23,4.46,4.46,0,0,1-1.85-1.59,9.17,9.17,0,0,1-1.26-2.85,18.31,18.31,0,0,1-.58-3.94A15,15,0,0,1,7,45.43a7.83,7.83,0,0,1,1-2.65,4.57,4.57,0,0,1,1.61-1.53,4.65,4.65,0,0,1,2.06-.56,3.9,3.9,0,0,1,1.39.18,8.28,8.28,0,0,1,1.29.53,1.55,1.55,0,0,0,.56.19c.14,0,.23-.13.26-.42a.18.18,0,0,1,.07-.16.28.28,0,0,1,.16-.06.27.27,0,0,1,.15,0,.14.14,0,0,1,.07.13,10,10,0,0,0,.17,1.83q.18,1,.4,2.13a.33.33,0,0,1-.05.22.36.36,0,0,1-.16.15.24.24,0,0,1-.19,0,.23.23,0,0,1-.13-.18,5.08,5.08,0,0,0-1.51-2.82,3.3,3.3,0,0,0-2.45-.8,2.11,2.11,0,0,0-1.46.65,4.36,4.36,0,0,0-.94,1.59,9.6,9.6,0,0,0-.48,2.3,17.2,17.2,0,0,0-.05,2.64,22.63,22.63,0,0,0,.44,3.44,10.9,10.9,0,0,0,.87,2.62,4.19,4.19,0,0,0,1.24,1.57,2,2,0,0,0,1.58.35,4.49,4.49,0,0,0,1.14-.35,2.38,2.38,0,0,0,.85-.67,2.84,2.84,0,0,0,.51-1.1,5.35,5.35,0,0,0,.1-1.63,7.88,7.88,0,0,0-.15-1.18,1.26,1.26,0,0,0-.29-.61.82.82,0,0,0-.51-.23,7.31,7.31,0,0,0-.8,0,.15.15,0,0,1-.17-.1.67.67,0,0,1-.07-.25.82.82,0,0,1,0-.27.16.16,0,0,1,.13-.13q.56-.09,1.17-.13A9.06,9.06,0,0,0,16,50l.42-.11.41-.12.46-.14.56-.15c.05,0,.1,0,.13.08a.7.7,0,0,1,.06.25A.62.62,0,0,1,18,50a.26.26,0,0,1-.13.17,2,2,0,0,0-.53.3.87.87,0,0,0-.25.41,2,2,0,0,0-.06.59c0,.23,0,.5,0,.82C17.13,53.23,17.16,53.7,17.21,54.62Z" transform="translate(30.38 -7.82)"/><path class="cls-13" d="M26.32,44.76a.46.46,0,0,0,.25-.19.61.61,0,0,0,0-.39c-.22-1.22-.34-1.81-.62-3a7.9,7.9,0,0,0-.34-1.08,2,2,0,0,0-.4-.65,1,1,0,0,0-.54-.28,1.94,1.94,0,0,0-.77.07.14.14,0,0,1-.16-.06.62.62,0,0,1-.11-.21.56.56,0,0,1,0-.23.15.15,0,0,1,.1-.14c.31-.11.66-.21,1.06-.31A9.85,9.85,0,0,0,25.9,38l.55-.24.49-.25.48-.25L28,37a.13.13,0,0,1,.16,0,.53.53,0,0,1,.11.2.76.76,0,0,1,0,.24c0,.08,0,.14-.07.16a2.57,2.57,0,0,0-.65.47,1.07,1.07,0,0,0-.28.57,2.22,2.22,0,0,0,0,.79c.06.31.16.7.28,1.17A44.43,44.43,0,0,1,29,49.52a11.39,11.39,0,0,0,.12,1.22,1.3,1.3,0,0,0,.24.62.56.56,0,0,0,.46.19,3.77,3.77,0,0,0,.76-.12.14.14,0,0,1,.15.09.52.52,0,0,1,.05.25.82.82,0,0,1-.06.29.3.3,0,0,1-.16.19,7.93,7.93,0,0,1-1.18.37,7.45,7.45,0,0,0-1.12.34,10.91,10.91,0,0,0-1.21.58,9.38,9.38,0,0,1-1.14.54q-.09,0-.14-.07a.63.63,0,0,1,0-.25.92.92,0,0,1,0-.29.36.36,0,0,1,.14-.2,5.48,5.48,0,0,0,.77-.48,1.54,1.54,0,0,0,.44-.54,2.21,2.21,0,0,0,.2-.79,9.38,9.38,0,0,0,0-1.27c-.09-1.61-.17-2.41-.38-4-.05-.4-.2-.56-.42-.47-1.84.69-2.77,1-4.65,1.57-.23.07-.33.26-.29.57.18,1.63.26,2.49.36,4.18A10.77,10.77,0,0,0,22,53.33a1.42,1.42,0,0,0,.26.65.62.62,0,0,0,.47.22,3.53,3.53,0,0,0,.77-.08.15.15,0,0,1,.15.1.54.54,0,0,1,.06.25.8.8,0,0,1-.05.29.28.28,0,0,1-.16.18,6.76,6.76,0,0,1-1.2.31,8,8,0,0,0-1.14.26A11,11,0,0,0,20,56a8,8,0,0,1-1.16.43c-.06,0-.11,0-.15-.09a.69.69,0,0,1-.06-.26.87.87,0,0,1,0-.29.3.3,0,0,1,.14-.19,4.68,4.68,0,0,0,.78-.4,1.31,1.31,0,0,0,.45-.51,2.08,2.08,0,0,0,.19-.79,10.29,10.29,0,0,0,0-1.3c-.23-3.1-.51-6.2-1-9.27a9.16,9.16,0,0,0-.25-1.13,2.15,2.15,0,0,0-.34-.71,1,1,0,0,0-.51-.35,1.94,1.94,0,0,0-.77,0c-.06,0-.11,0-.15-.09a.66.66,0,0,1-.09-.23.58.58,0,0,1,0-.23.15.15,0,0,1,.11-.13c.31-.06.68-.11,1.08-.16a9.17,9.17,0,0,0,1.14-.2l.57-.16.51-.18.51-.18.56-.18a.13.13,0,0,1,.15.06.53.53,0,0,1,.09.21.76.76,0,0,1,0,.24q0,.12-.09.14a2.48,2.48,0,0,0-.69.38,1,1,0,0,0-.33.53,2.18,2.18,0,0,0,0,.79c0,.32.1.72.19,1.21.22,1.18.32,1.78.49,3,0,.31.18.43.41.36C23.57,45.75,24.5,45.43,26.32,44.76Z" transform="translate(30.38 -7.82)"/><path class="cls-14" d="M36.9,46.47c0,.55.07,1,.11,1.28a1.31,1.31,0,0,0,.23.66.64.64,0,0,0,.47.23,4.07,4.07,0,0,0,.81,0c.06,0,.11,0,.15.13a.69.69,0,0,1,.05.29.84.84,0,0,1-.06.3.27.27,0,0,1-.17.18,8.7,8.7,0,0,1-1.21.25,6.09,6.09,0,0,0-1.14.26,8.89,8.89,0,0,0-1.23.52,10.78,10.78,0,0,1-1.15.51c-.06,0-.11,0-.14-.07a.66.66,0,0,1,0-.26,1.08,1.08,0,0,1,.05-.3.37.37,0,0,1,.14-.21,5.83,5.83,0,0,0,.77-.47,1.55,1.55,0,0,0,.45-.53,2.1,2.1,0,0,0,.2-.79,9,9,0,0,0,0-1.3A42.73,42.73,0,0,0,33,36.93c-.2-.51-.42-.77-.64-.81a1.69,1.69,0,0,0-.95.25,3.49,3.49,0,0,0-.81.52,1.4,1.4,0,0,0-.4.66,2.88,2.88,0,0,0-.08,1c0,.38.08.86.16,1.46a.24.24,0,0,1,0,.21.33.33,0,0,1-.15.1.24.24,0,0,1-.17,0,.18.18,0,0,1-.11-.12,14.12,14.12,0,0,0-.41-1.59,10.23,10.23,0,0,0-.61-1.48.33.33,0,0,1,.08-.38,1.38,1.38,0,0,1,.4-.28c2.47-1.21,4.85-2.52,7.21-3.93a1.2,1.2,0,0,1,.45-.18.31.31,0,0,1,.33.2c.08.17.17.4.28.66L38,34l.45.95.44.93a.29.29,0,0,1,0,.21.32.32,0,0,1-.12.17.28.28,0,0,1-.18,0c-.06,0-.12-.05-.16-.14a7.84,7.84,0,0,0-.83-1.35,2.35,2.35,0,0,0-.76-.67,1.18,1.18,0,0,0-.75-.11,2.73,2.73,0,0,0-.83.32,2,2,0,0,0-.8.68c-.12.23-.07.59.14,1.1A41.35,41.35,0,0,1,36.9,46.47Z" transform="translate(30.38 -7.82)"/><path class="cls-15" d="M40.59,33.91a4.29,4.29,0,0,0,.7,1.13,3.1,3.1,0,0,0,.79.64,4.13,4.13,0,0,0,.85.35l.85.26a13.61,13.61,0,0,1,1.45.61,5.65,5.65,0,0,1,1.41,1,6.38,6.38,0,0,1,1.23,1.68,9,9,0,0,1,.84,2.69,7.77,7.77,0,0,1,0,2.82,4.9,4.9,0,0,1-.79,1.9,3.38,3.38,0,0,1-1.25,1.08,4,4,0,0,1-1.42.4,2.75,2.75,0,0,1-1-.15,3,3,0,0,1-1.05-.59L43,47.66a.27.27,0,0,0-.19,0c-.08,0-.16.08-.24.21a2,2,0,0,0-.23.63.5.5,0,0,1-.13.25.27.27,0,0,1-.17.07.17.17,0,0,1-.15-.07.29.29,0,0,1-.05-.18c0-.41.07-.86.08-1.33s0-.94,0-1.42-.08-.94-.14-1.4-.15-.93-.27-1.41a.4.4,0,0,1,0-.28.34.34,0,0,1,.15-.17.23.23,0,0,1,.19,0,.27.27,0,0,1,.14.2,14.24,14.24,0,0,0,.6,1.92,6.75,6.75,0,0,0,.77,1.44,3.18,3.18,0,0,0,.93.89,1.73,1.73,0,0,0,1.1.24,1.84,1.84,0,0,0,.84-.31,2.29,2.29,0,0,0,.68-.74A3.35,3.35,0,0,0,47.31,45a5,5,0,0,0,0-1.53,5.67,5.67,0,0,0-.54-1.86,4.84,4.84,0,0,0-.87-1.23,4.29,4.29,0,0,0-1-.75c-.35-.19-.68-.35-1-.48L42.7,38.7A5,5,0,0,1,41.53,38a5.19,5.19,0,0,1-1-1.08,8.19,8.19,0,0,1-.93-1.76,7.51,7.51,0,0,1-.56-2,4.65,4.65,0,0,1,.07-1.59,3.6,3.6,0,0,1,.56-1.27,4.07,4.07,0,0,1,.94-1,2.31,2.31,0,0,1,.64-.34,2.78,2.78,0,0,1,.71-.11l.36,0a.48.48,0,0,0,.24-.08c.1-.07.12-.21.06-.4a.27.27,0,0,1,0-.21.25.25,0,0,1,.11-.12.24.24,0,0,1,.15,0,.19.19,0,0,1,.13.13q.22.51.47,1l.54,1c.25.46.47.87.69,1.24s.45.81.71,1.34a.27.27,0,0,1,0,.18.25.25,0,0,1-.09.15.19.19,0,0,1-.16,0,.28.28,0,0,1-.17-.15,14.08,14.08,0,0,0-1.22-1.79,3.77,3.77,0,0,0-1-.91,1.29,1.29,0,0,0-.86-.18,2.3,2.3,0,0,0-.87.38,1.73,1.73,0,0,0-.52.55,2,2,0,0,0-.27.78,3.13,3.13,0,0,0,0,1A4.69,4.69,0,0,0,40.59,33.91Z" transform="translate(30.38 -7.82)"/><path class="cls-16" d="M-21.66,66.6c-.22-.54-.42-1-.61-1.41a6,6,0,0,0-.59-1,3.22,3.22,0,0,0-.72-.72,4,4,0,0,0-1-.5.42.42,0,0,1-.22-.19,1.43,1.43,0,0,1-.16-.32.68.68,0,0,1,0-.28c0-.08,0-.11.12-.09q.6.15,1.39.42t1.46.42q.39.09.73.14l.66.09.65.08.73.12a.3.3,0,0,1,.19.18,1.18,1.18,0,0,1,.11.33,1.08,1.08,0,0,1,0,.32c0,.1,0,.14-.11.13a2,2,0,0,0-.86,0,.55.55,0,0,0-.37.43,2.19,2.19,0,0,0,.07.92,14.63,14.63,0,0,0,.47,1.51,52.81,52.81,0,0,0,4.2,8.69c.3.49.58.89.82,1.23s.47.63.68.88.42.48.62.67.41.4.65.6l.46.36.48.34a6,6,0,0,0,.54.32.84.84,0,0,0,.33.12.42.42,0,0,0,.26-.08c.06,0,.09-.15.08-.31a3.31,3.31,0,0,0-.15-.66c-.09-.28-.22-.66-.39-1.14q0-.14,0-.15a.32.32,0,0,1,.17,0,.74.74,0,0,1,.22.16.57.57,0,0,1,.15.23c.24.68.48,1.3.71,1.86s.5,1.14.81,1.72a.53.53,0,0,1,0,.16q0,.09-.17,0a36,36,0,0,1-4.33-3.1l-.79-.66-.69-.61-.21-.2-.25-.24-.18-.19s0-.06,0,0,.32.25.41.31.12.06.09,0a3.91,3.91,0,0,0-.32-.45L-16.33,76a52.88,52.88,0,0,1-5.32-9.36Z" transform="translate(30.38 -7.82)"/><path class="cls-17" d="M-2.23,78.65A26,26,0,0,1-2,82a6.79,6.79,0,0,1-.27,2.19,1.46,1.46,0,0,1-.86,1,2.13,2.13,0,0,1-1.55-.24,7.71,7.71,0,0,1-1.73-1.11,11,11,0,0,1-1.56-1.64A16,16,0,0,1-9.4,79.92a20.91,20.91,0,0,1-1.37-3.11c-.86-2.6-1.6-5.2-2.24-7.86-.14-.61-.27-1.15-.41-1.6a5.25,5.25,0,0,0-.47-1.14,2.46,2.46,0,0,0-.66-.75,3,3,0,0,0-1-.45q-.11,0-.2-.2a1.37,1.37,0,0,1-.13-.36.84.84,0,0,1,0-.32c0-.09.07-.14.14-.12a12.75,12.75,0,0,1,1.4.33,10.76,10.76,0,0,0,1.47.32q.4.06.74.07h1.33q.34,0,.74.05.11,0,.18.18a1.23,1.23,0,0,1,.09.36,1.36,1.36,0,0,1,0,.37c0,.11-.06.17-.13.16a2,2,0,0,0-.9.15.85.85,0,0,0-.44.56,2.92,2.92,0,0,0-.05,1.07c0,.45.13,1,.27,1.71.55,2.65,1.15,5.28,1.92,7.88a16.22,16.22,0,0,0,.83,2.19,14.47,14.47,0,0,0,1.06,1.91,10.1,10.1,0,0,0,1.18,1.49,3.79,3.79,0,0,0,1.25.9c.9.37,1.48.18,1.79-.62s.3-2.29,0-4.59c-.31-2-.45-3.05-.72-5.21q-.06-.51-.15-1.25t-.2-1.55q-.11-.77-.22-1.5a10.9,10.9,0,0,0-.23-1.13A6.58,6.58,0,0,0-4.86,67a1.3,1.3,0,0,0-.3-.44.75.75,0,0,0-.39-.18,5.2,5.2,0,0,1-.58-.13q-.09,0-.16-.2a1.7,1.7,0,0,1-.09-.39,1.62,1.62,0,0,1,0-.37c0-.11.06-.16.13-.16a4.79,4.79,0,0,1,1,.18,4.67,4.67,0,0,0,1.06.18,3.78,3.78,0,0,0,1-.08,4.74,4.74,0,0,1,1.1-.09q.11,0,.19.18a1.32,1.32,0,0,1,.09.39,1.38,1.38,0,0,1,0,.4q0,.19-.16.19a4.55,4.55,0,0,1-.53.07.44.44,0,0,0-.32.14,1,1,0,0,0-.2.42,7.44,7.44,0,0,0-.16.86,7,7,0,0,0,0,1.11c0,.47,0,1,.09,1.48s.09,1,.16,1.56.12,1,.16,1.36C-2.63,75.62-2.5,76.66-2.23,78.65Z" transform="translate(30.38 -7.82)"/><path class="cls-18" d="M6.13,64.46a3.09,3.09,0,0,1,1.6.28,6.79,6.79,0,0,1,1.47,1l.4.32a.46.46,0,0,0,.32.14c.2,0,.33-.28.37-.78a.36.36,0,0,1,.11-.25A.28.28,0,0,1,10.6,65a.3.3,0,0,1,.18.07.26.26,0,0,1,.06.23q-.05.63-.06,1.29t0,1.34q0,1.06.11,2.1t.16,2.13a.37.37,0,0,1-.08.25.37.37,0,0,1-.2.13.3.3,0,0,1-.23,0,.3.3,0,0,1-.13-.24,11,11,0,0,0-1.6-4.79,3,3,0,0,0-2.73-1.39,2.62,2.62,0,0,0-2,1.14A7.56,7.56,0,0,0,2.91,69.9a17.11,17.11,0,0,0-.47,3.39,34.21,34.21,0,0,0,0,3.48,32.93,32.93,0,0,0,.41,3.59,19,19,0,0,0,.8,3.16,8.47,8.47,0,0,0,1.19,2.31,2.34,2.34,0,0,0,1.64,1,3.09,3.09,0,0,0,1.34-.13,2.1,2.1,0,0,0,1.06-.88,8.09,8.09,0,0,0,.94-2.13,18.07,18.07,0,0,0,.59-3,.42.42,0,0,1,.12-.3.19.19,0,0,1,.2,0,.43.43,0,0,1,.18.18.37.37,0,0,1,.06.26q-.08.67-.13,1.3t-.09,1.27q-.07,1.08-.11,2.18c0,.73-.07,1.47-.12,2.24a.49.49,0,0,1-.09.26.25.25,0,0,1-.16.1.18.18,0,0,1-.16-.06.32.32,0,0,1-.07-.22,2.6,2.6,0,0,0-.07-.52A1.22,1.22,0,0,0,9.83,87a.35.35,0,0,0-.29-.17.59.59,0,0,0-.38.2,6.22,6.22,0,0,1-.7.57,2.85,2.85,0,0,1-.66.34,2.45,2.45,0,0,1-.68.14,4.77,4.77,0,0,1-.76,0A5.9,5.9,0,0,1,2.3,84.9,22.94,22.94,0,0,1,.26,77,22.07,22.07,0,0,1,.33,72a13.25,13.25,0,0,1,1.12-3.9,7,7,0,0,1,2-2.56A5,5,0,0,1,6.13,64.46Z" transform="translate(30.38 -7.82)"/><path class="cls-19" d="M21.38,62.48a.49.49,0,0,1,.28,0c.09,0,.13.24.11.63s0,.65,0,1,0,.76,0,1.14c0,1.22,0,2.33,0,3.35a.51.51,0,0,1-.09.28.48.48,0,0,1-.19.17.22.22,0,0,1-.2,0c-.06,0-.1-.13-.11-.28,0-1-.12-1.79-.2-2.36a3.68,3.68,0,0,0-.35-1.25.74.74,0,0,0-.62-.42,4.85,4.85,0,0,0-1,.1l-1.11.26a7.11,7.11,0,0,0-.77.21.82.82,0,0,0-.45.39,2.22,2.22,0,0,0-.21.86c0,.38,0,.89,0,1.54,0,2.21-.08,4.42-.17,6.63a1.28,1.28,0,0,0,.06.63c.05.08.11.11.17.1a4.68,4.68,0,0,0,1.29-.37,1.74,1.74,0,0,0,.74-.67,3.2,3.2,0,0,0,.38-1.09c.08-.44.15-1,.22-1.7a.81.81,0,0,1,.12-.37.36.36,0,0,1,.2-.16.19.19,0,0,1,.19.07.46.46,0,0,1,.07.32c0,.41,0,.77-.08,1.09s-.06.64-.09,1l-.1,1c0,.34-.07.73-.11,1.17-.06.73-.11,1.39-.14,2S19,79,18.91,79.77a.49.49,0,0,1-.12.28.27.27,0,0,1-.19.11.23.23,0,0,1-.17-.07.37.37,0,0,1-.06-.28c0-.67.07-1.21.06-1.63a1.73,1.73,0,0,0-.21-.92.83.83,0,0,0-.65-.34,5.37,5.37,0,0,0-1.25.09.32.32,0,0,0-.18.15,1.16,1.16,0,0,0-.12.53c-.14,1.86-.22,2.77-.42,4.51-.08.71-.13,1.3-.14,1.78a6,6,0,0,0,.05,1.16,1.78,1.78,0,0,0,.24.69.8.8,0,0,0,.42.33,1.64,1.64,0,0,0,.46.07,3,3,0,0,0,.55,0,3.86,3.86,0,0,0,.7-.18,1.8,1.8,0,0,0,.53-.28,5.4,5.4,0,0,0,.63-.59,3.67,3.67,0,0,0,.52-.76A7.83,7.83,0,0,0,20,83.25c.15-.45.31-1,.47-1.71a.56.56,0,0,1,.16-.3.54.54,0,0,1,.22-.12.17.17,0,0,1,.18.05.28.28,0,0,1,0,.26c-.23,1-.45,1.86-.66,2.67s-.41,1.61-.6,2.4a1.33,1.33,0,0,1-.13.28.47.47,0,0,1-.32.24,34.78,34.78,0,0,1-5.46.83c-.39,0-.78.07-1.16.13s-.74.13-1,.15a.17.17,0,0,1-.17-.13.89.89,0,0,1,0-.32.87.87,0,0,1,.09-.36.34.34,0,0,1,.23-.2,2.35,2.35,0,0,0,.68-.28,1.61,1.61,0,0,0,.5-.51,3.2,3.2,0,0,0,.36-.84,7.76,7.76,0,0,0,.23-1.31c.47-4.5.67-9,.74-13.52,0-.55,0-1.1,0-1.63a13.57,13.57,0,0,0-.13-1.49,4.65,4.65,0,0,0-.31-1.16,1.08,1.08,0,0,0-.55-.62,2.3,2.3,0,0,0-.44-.13,2,2,0,0,0-.44-.05c-.07,0-.13,0-.17-.17A1.49,1.49,0,0,1,12.2,65a1.64,1.64,0,0,1,0-.44c0-.14.09-.21.16-.22a8.41,8.41,0,0,1,1.15-.11,7.08,7.08,0,0,0,1.18-.14Q18.09,63.44,21.38,62.48Z" transform="translate(30.38 -7.82)"/><path class="cls-20" d="M25.09,65.76a4.42,4.42,0,0,0-.32-2.07,1.17,1.17,0,0,0-1.29-.62c-.06,0-.11,0-.14-.18a2.28,2.28,0,0,1-.05-.46,2.4,2.4,0,0,1,0-.47q0-.22.15-.26l.69-.23a9.36,9.36,0,0,1,1-.27A5.14,5.14,0,0,1,26,61c.26,0,.42,0,.47.16,2.1,5.22,4,10.59,4.3,16.26,0,.26.1.17.23-.26a75.61,75.61,0,0,0,2.09-9.33c.06-.43.14-1,.22-1.57s.15-1.3.2-1.94.09-1.26.12-1.84a10.73,10.73,0,0,0,0-1.35,7.41,7.41,0,0,0-.13-.93.9.9,0,0,0-.22-.46.45.45,0,0,0-.37-.11l-.54.06c-.06,0-.1,0-.13-.18a2.47,2.47,0,0,1,0-.48,3.31,3.31,0,0,1,0-.49q0-.23.14-.27a3.74,3.74,0,0,1,.92-.23,4.3,4.3,0,0,0,1-.24,4.88,4.88,0,0,0,.93-.47,4.82,4.82,0,0,1,1-.49c.07,0,.13,0,.16.16a1.67,1.67,0,0,1,0,.45,2.44,2.44,0,0,1-.07.51c0,.17-.1.27-.17.29l-.52.31a1,1,0,0,0-.33.33,2.59,2.59,0,0,0-.26.62c-.08.27-.18.66-.29,1.17s-.16.84-.24,1.44-.16,1.23-.25,1.9l-.26,2c-.09.65-.17,1.21-.25,1.69a69,69,0,0,1-4.67,15.69.73.73,0,0,1-.14.2,1.24,1.24,0,0,1-.2.17.57.57,0,0,1-.18.08c-.05,0-.07,0-.06-.07.67-5.45-.83-10.84-2.5-16-.08-.21-.14-.3-.19-.27s-.08.22-.1.57a88.65,88.65,0,0,1-2,13.59c-.19.82-.33,1.44-.39,1.86a2.3,2.3,0,0,0,0,.89.35.35,0,0,0,.29.28,2.47,2.47,0,0,0,.51,0c.05,0,.07.05.07.15a1.27,1.27,0,0,1-.08.34,2.64,2.64,0,0,1-.17.37.42.42,0,0,1-.18.2,2.18,2.18,0,0,1-.64.13,3.55,3.55,0,0,0-.85.18,6.56,6.56,0,0,0-1,.4,4,4,0,0,1-.74.31s-.07,0-.07-.13a1.46,1.46,0,0,1,0-.33,1.57,1.57,0,0,1,.13-.36.52.52,0,0,1,.18-.23,6.57,6.57,0,0,0,.69-.38,1.85,1.85,0,0,0,.52-.54,4.61,4.61,0,0,0,.47-1,18.49,18.49,0,0,0,.52-1.9A99.36,99.36,0,0,0,25.09,65.76Z" transform="translate(30.38 -7.82)"/><path class="cls-21" d="M37.89,75.18c-.4.71-.72,1.24-.93,1.61a5.8,5.8,0,0,0-.4.76c-.05.14,0,.2.05.17a1.82,1.82,0,0,0,.43-.24s0,0,0,.1l-.22.3-.29.34-.23.24a8.29,8.29,0,0,1-.76.61c-.22.15-.47.33-.75.54s-.63.5-1,.81-.68.57-.95.75c0,0-.05,0,0-.08a3,3,0,0,1,.16-.32q.11-.19.24-.39a1.54,1.54,0,0,1,.23-.28q.44-.35.75-.65a6.32,6.32,0,0,0,.62-.7,10.53,10.53,0,0,0,.69-1c.25-.42.57-1,.94-1.71a59.32,59.32,0,0,0,5-16.55c.13-1,.08-1.62-.12-1.83s-.57-.25-1.11-.1a3.05,3.05,0,0,0-1.13.54,2.91,2.91,0,0,0-.78,1.06,10.18,10.18,0,0,0-.6,1.8c-.18.73-.39,1.67-.63,2.79a.77.77,0,0,1-.16.37.37.37,0,0,1-.2.13.14.14,0,0,1-.15-.08.38.38,0,0,1,0-.26c.18-1,.33-2.08.43-3.15a29.3,29.3,0,0,0,.13-3.22,1,1,0,0,1,.28-.73,1.41,1.41,0,0,1,.57-.35,48.73,48.73,0,0,1,10-1.8,1.07,1.07,0,0,1,.58.11c.15.08.21.28.16.54s-.16.68-.26,1.12l-.32,1.44q-.17.78-.36,1.58T47.44,61a.77.77,0,0,1-.17.28.6.6,0,0,1-.24.18.19.19,0,0,1-.18,0s-.06-.13,0-.27a13.21,13.21,0,0,0,.35-2.37A3.72,3.72,0,0,0,47,57.3a1.14,1.14,0,0,0-.62-.69,2.42,2.42,0,0,0-2.29.48A4,4,0,0,0,43.45,59,54.93,54.93,0,0,1,37.89,75.18Z" transform="translate(30.38 -7.82)"/></svg>