<svg id="Layer_1" data-name="Layer 1" xmlns="http://www.w3.org/2000/svg" viewBox="0 0 137.49 150.73"><defs><style>.cls-1{font-size:19.74px;fill:#414042;font-family:LibreBaskerville-Bold, Libre Baskerville;font-weight:700;}.cls-2{fill:none;stroke:#fcb849;stroke-linecap:round;stroke-linejoin:round;stroke-width:1.23px;}</style></defs><title>who-image</title><text class="cls-1" transform="translate(32.48 40.34) rotate(-23)">W</text><text class="cls-1" transform="translate(53.35 32.06) rotate(-4.86)">h</text><text class="cls-1" transform="translate(65.76 30.88) rotate(7.77)">o</text><text class="cls-1" transform="translate(77.54 32.69) rotate(16.3)"> </text><text class="cls-1" transform="translate(81.02 32.98) rotate(26.34)">w</text><text class="cls-1" transform="matrix(0.77, 0.63, -0.63, 0.77, 94.88, 39.96)">e</text><text class="cls-1" transform="translate(102.91 46.75) rotate(47.18)"> </text><text class="cls-1" transform="translate(106.01 49.69) rotate(54.89)">a</text><text class="cls-1" transform="translate(111.83 57.89) rotate(64.78)">r</text><text class="cls-1" transform="translate(115.6 65.45) rotate(74.56)">e</text><text class="cls-1" transform="translate(118.32 75.47) rotate(83.49)">?</text><path class="cls-2" d="M-33.41,8.59A61.76,61.76,0,0,0-60.66,59.85,61.82,61.82,0,0,0,1.15,121.67,61.72,61.72,0,0,0,50.63,96.92s14-19.4,12.62-39.92" transform="translate(61.28 28.44)"/></svg>